<?xml version="1.0" standalone="no"?>
<!DOCTYPE svg PUBLIC "-//W3C//DTD SVG 1.1//EN" "http://www.w3.org/Graphics/SVG/1.1/DTD/svg11.dtd" >
<svg>
<metadata>
Created by FontForge 20090622 at Sun Jun 11 11:03:40 2017
 By deploy user
Copyright 2005 Canada Type. All rights reserved.
</metadata>
<defs>
<font id="TrumpGothicWest" horiz-adv-x="259" >
  <font-face 
    font-family="Trump Gothic West"
    font-weight="400"
    font-stretch="normal"
    units-per-em="1000"
    panose-1="2 0 5 8 2 0 0 2 0 4"
    ascent="800"
    descent="-200"
    x-height="567"
    cap-height="766"
    bbox="-57 -210 803 946"
    underline-thickness="50"
    underline-position="-50"
    unicode-range="U+0020-U+FB02"
  />
<missing-glyph horiz-adv-x="150" 
 />
    <glyph glyph-name=".notdef" horiz-adv-x="150" 
 />
    <glyph glyph-name="eth" unicode="&#xf0;" horiz-adv-x="257" 
d="M222 638v-497q0 -42 -4.5 -70.5t-16 -46t-30 -25.5t-45.5 -8q-55 0 -75.5 34t-20.5 116v280q0 82 20.5 116t75.5 34q11 0 19.5 -1.5t16.5 -3.5v72h-39v34h38q-2 26 -10 36.5t-25 10.5h-30v50q10 2 19.5 3.5t20.5 1.5q33 0 55 -23.5t28 -78.5h34v-34h-31zM162 452
q0 35 -8 49.5t-28 14.5q-21 0 -28.5 -17t-7.5 -59v-318q0 -42 7.5 -59t28.5 -17t28.5 17t7.5 59v330z" />
    <glyph glyph-name="Lslash" unicode="&#x141;" horiz-adv-x="209" 
d="M40 0v290l-37 -20l-27 49l64 35v412h62v-378l43 24l27 -49l-70 -39v-262h102v-62h-164z" />
    <glyph glyph-name="lslash" unicode="&#x142;" horiz-adv-x="140" 
d="M100 323v-323h-60v290l-37 -20l-27 49l64 35v413h60v-380l45 25l27 -49z" />
    <glyph glyph-name="Scaron" unicode="&#x160;" horiz-adv-x="296" 
d="M185 842h-70l-59 101h53l39 -62l36 62h56zM266 147q0 -42 -5.5 -72t-19 -49.5t-36 -29t-57.5 -9.5t-57.5 9.5t-36 29.5t-19 50t-5.5 71v109h62v-136q0 -42 17.5 -59t38.5 -17t38.5 17t17.5 59v103q0 26 -13 49t-32 45.5t-42 45.5t-42 48.5t-32 55.5t-13 66v86q0 50 12 81
t30 48.5t38.5 24t37.5 6.5t37.5 -6t38.5 -23.5t30 -48.5t12 -82v-120h-62v147q0 42 -17.5 59t-38.5 17t-38.5 -17t-17.5 -59v-104q0 -34 13 -60t32 -48.5t42 -43t42 -43.5t32 -50t13 -63v-87v0z" />
    <glyph glyph-name="scaron" unicode="&#x161;" horiz-adv-x="242" 
d="M158 643h-70l-59 101h53l39 -62l36 62h56zM222 152q0 -84 -20.5 -122t-75.5 -38q-62 0 -84 39t-22 121v49h60v-78q0 -42 8.5 -59t37.5 -17q21 0 28.5 19.5t7.5 76.5q0 25 -10.5 46t-26.5 40l-34 38.5t-34 41.5t-26.5 48.5t-10.5 60.5q0 82 22 121t84 39q55 0 75.5 -38
t20.5 -122v-40h-60v69q0 42 -7.5 59t-28.5 17q-14 0 -23 -4.5t-14 -15t-7 -28.5t-2 -46q0 -33 10.5 -57t26.5 -43t34 -36.5t34 -37t26.5 -44.5t10.5 -59z" />
    <glyph glyph-name="Yacute" unicode="&#xdd;" horiz-adv-x="278" 
d="M157 841h-53l44 101h71zM161 287v-287h-60v286l-101 481h63l71 -343l81 344h63z" />
    <glyph glyph-name="yacute" unicode="&#xfd;" horiz-adv-x="229" 
d="M140 642h-53l44 101h71zM113 -200h-64l28 176l-77 591h64l48 -432q0 -13 0.5 -26t1.5 -25l2 6q1 11 1.5 22.5t0.5 22.5l47 432h64z" />
    <glyph glyph-name="Thorn" unicode="&#xde;" horiz-adv-x="291" 
d="M271 333q0 -51 -7.5 -82t-24 -48.5t-42.5 -23.5t-62 -6h-33v-173h-62v766h62v-160h33q36 0 62 -6t42.5 -23.5t24 -48.5t7.5 -82v-113v0zM209 471q0 42 -13.5 59t-42.5 17h-51v-315h51q29 0 42.5 17t13.5 59v163z" />
    <glyph glyph-name="thorn" unicode="&#xfe;" horiz-adv-x="262" 
d="M232 145q0 -42 -2 -71t-8 -47t-17.5 -26.5t-31.5 -8.5q-26 0 -42.5 15t-30.5 34v-240h-60v965h60v-244q3 8 8.5 17t13.5 17t18 13.5t23 5.5q40 0 54.5 -33.5t14.5 -116.5v-280v0zM172 444q0 42 -7.5 59t-28.5 17q-14 0 -25 -17t-11 -59v-330q0 -34 8 -49t28 -15
q21 0 28.5 17t7.5 59v318z" />
    <glyph glyph-name="Zcaron" unicode="&#x17d;" horiz-adv-x="256" 
d="M169 842h-70l-59 101h53l39 -62l36 62h56zM10 0v62l161 642h-152v62h227v-18l-172 -686h172v-62h-236z" />
    <glyph glyph-name="zcaron" unicode="&#x17e;" horiz-adv-x="230" 
d="M163 643h-70l-59 101h53l39 -62l36 62h56zM78 60h132v-60h-202v53l141 454h-122v60h195v-38z" />
    <glyph glyph-name="brokenbar" unicode="&#xa6;" horiz-adv-x="142" 
d="M40 373v393h62v-393h-62zM40 -200v374h62v-374h-62z" />
    <glyph glyph-name="minus" unicode="&#x2212;" horiz-adv-x="312" 
d="M24 344v56h262v-56h-262z" />
    <glyph glyph-name="multiply" unicode="&#xd7;" horiz-adv-x="267" 
d="M172 370l70 -75l-42 -38l-70 75l-75 -70l-38 42l75 70l-70 75l42 38l70 -75l75 70l38 -42z" />
    <glyph glyph-name="space" unicode=" " horiz-adv-x="150" 
 />
    <glyph glyph-name="exclam" unicode="!" horiz-adv-x="127" 
d="M86 151h-40l-14 616h69zM108 29q0 -19 -14.5 -29t-31.5 -10t-30 13.5t-13 28.5q0 21 14 32t33 11q21 0 31.5 -13t10.5 -33z" />
    <glyph glyph-name="quotedbl" unicode="&#x22;" horiz-adv-x="193" 
d="M159 557h-30l-15 210h60zM66 557h-30l-15 210h60z" />
    <glyph glyph-name="numbersign" unicode="#" horiz-adv-x="351" 
d="M265 510l-14 -64h62v-56h-74l-16 -72h-57l16 72h-55l-16 -72h-57l16 72h-59v56h71l14 64h-61v56h73l17 82h57l-17 -82h55l17 82h57l-17 -82h60v-56h-72zM153 510l-14 -64h55l14 64h-55z" />
    <glyph glyph-name="dollar" unicode="$" horiz-adv-x="296" 
d="M266 147q0 -39 -4.5 -68t-16 -48.5t-31 -30t-48.5 -12.5v-52h-33v52q-61 4 -82 42.5t-21 116.5v109h62v-136q0 -35 12 -52t29 -22v300l-36.5 39t-33 42.5t-24 48.5t-9.5 57v86q0 45 10 74.5t25 47.5t33 26.5t35 10.5v52h33v-53q17 -2 34.5 -10.5t32 -26.5t24 -47.5
t9.5 -73.5v-120h-62v147q0 32 -11 49.5t-27 23.5v-316q18 -16 35.5 -33.5t32 -38t23.5 -44.5t9 -53v-87v0zM133 720q-17 -5 -29 -22t-12 -52v-104q0 -32 11.5 -57.5t29.5 -46.5v282zM204 223q0 23 -10.5 44.5t-27.5 41.5v-262q16 5 27 22.5t11 50.5v103z" />
    <glyph glyph-name="percent" unicode="%" horiz-adv-x="606" 
d="M576 139q0 -42 -4 -70.5t-14 -46t-28 -25.5t-45 -8t-45 8t-28 26t-14 46.5t-4 69.5v199q0 41 4 69.5t14 46.5t28 26t45 8t45 -8t28 -25.5t14 -46t4 -70.5v-199v0zM250 0h-57l166 768h57zM212 431q0 -42 -4 -70.5t-14 -46t-28 -25.5t-45 -8t-45 8t-28 26t-14 46.5t-4 69.5
v199q0 41 4 69.5t14 46.5t28 26t45 8t45 -8t28 -25.5t14 -46t4 -70.5v-199v0zM521 362q0 42 -7.5 59t-28.5 17t-28.5 -17t-7.5 -59v-247q0 -42 7.5 -59t28.5 -17t28.5 17t7.5 59v247zM157 654q0 42 -7.5 59t-28.5 17t-28.5 -17t-7.5 -59v-247q0 -42 7.5 -59t28.5 -17
t28.5 17t7.5 59v247z" />
    <glyph glyph-name="ampersand" unicode="&#x26;" horiz-adv-x="298" 
d="M266 369v-232q0 -41 -8.5 -69.5t-24.5 -46.5t-37.5 -26t-47.5 -8q-52 0 -85 33.5t-33 116.5v128q0 51 16 85t68 51q-26 7 -42.5 18t-25.5 26.5t-12.5 36t-3.5 45.5v103q0 83 33 116.5t85 33.5q26 0 47.5 -8t37.5 -26t24.5 -46.5t8.5 -69.5v-30h-62v57q0 21 -5 34
t-12.5 20t-17.5 9.5t-21 2.5q-10 0 -20.5 -2.5t-18 -9.5t-12.5 -20t-5 -34v-168q0 -21 9.5 -34t23 -20t28.5 -9.5t25 -2.5h26v60h62v-60h31v-54h-31zM204 369h-26q-10 0 -25 -2.5t-28.5 -9.5t-23 -20t-9.5 -34v-193q0 -21 5 -34t12.5 -20t18 -9.5t20.5 -2.5q11 0 21 2.5
t17.5 9.5t12.5 20t5 34v259z" />
    <glyph glyph-name="quotesingle" unicode="'" horiz-adv-x="100" 
d="M66 557h-30l-15 210h60z" />
    <glyph glyph-name="parenleft" unicode="(" horiz-adv-x="182" 
d="M121 -171l-30.5 88.5t-25.5 95.5t-17 116.5t-6 151.5q0 25 3 77t11 119t24 142.5t41 148.5h61q-26 -69 -41.5 -143.5t-24 -141.5t-11 -118.5t-2.5 -74.5q0 -19 2 -70t10.5 -117t24 -138.5t42.5 -135.5h-61z" />
    <glyph glyph-name="parenright" unicode=")" horiz-adv-x="182" 
d="M138 318q0 -20 -1 -59.5t-5.5 -91t-14 -112t-25.5 -121.5q-7 -26 -15 -52t-17 -52h-60q8 22 14.5 42.5t12.5 42.5q17 61 27 123t15 116t6.5 95t1.5 59q0 14 -1.5 53t-6 91.5t-14 112.5t-25.5 116q-7 23 -14.5 44l-16.5 44h61q14 -33 24 -66q8 -24 17 -62t17.5 -87.5
t14 -109t5.5 -126.5z" />
    <glyph glyph-name="asterisk" unicode="*" horiz-adv-x="295" 
d="M190 627l42 -73l-43 -24l-41 69l-41 -70l-42 25l42 73h-86v49h83l-41 72l42 25l43 -74l41 73l43 -24l-41 -73h83v-48h-84z" />
    <glyph glyph-name="plus" unicode="+" horiz-adv-x="312" 
d="M185 344v-103h-56v103h-103v56h103v103h56v-103h103v-56h-103z" />
    <glyph glyph-name="comma" unicode="," horiz-adv-x="126" 
d="M-10 -135h-36l88 218h75z" />
    <glyph glyph-name="hyphen" unicode="-" horiz-adv-x="249" 
d="M24 264v56h199v-56h-199z" />
    <glyph glyph-name="period" unicode="." horiz-adv-x="137" 
d="M112 29q0 -19 -14.5 -29t-31.5 -10t-30 13.5t-13 28.5q0 21 14 32t33 11q21 0 31.5 -13t10.5 -33z" />
    <glyph glyph-name="slash" unicode="/" horiz-adv-x="223" 
d="M57 0h-57l166 768h57z" />
    <glyph glyph-name="zero" unicode="0" horiz-adv-x="306" 
d="M271 147q0 -51 -12 -82t-30 -48.5t-38.5 -23.5t-37.5 -6t-37.5 6.5t-38.5 24t-30 48.5t-12 81v472q0 50 12 81t30 48.5t38.5 24t37.5 6.5q15 0 35.5 -6t39 -23.5t31 -48.5t12.5 -82v-472v0zM209 646q0 42 -17.5 59t-38.5 17t-38.5 -17t-17.5 -59v-526q0 -42 17.5 -59
t38.5 -17t38.5 17t17.5 59v526z" />
    <glyph glyph-name="one" unicode="1" horiz-adv-x="198" 
d="M96 0v693l-91 -37v61l103 49h50v-766h-62z" />
    <glyph glyph-name="two" unicode="2" horiz-adv-x="281" 
d="M256 531q0 -34 -13 -73t-32 -79.5t-41.5 -82.5t-41.5 -83t-31.5 -79t-12.5 -72h154v-62h-218v86q0 36 13 74t32 78t42 79.5t42 78.5t32 76t13 70v104q0 42 -17.5 59t-38.5 17t-38.5 -17t-17.5 -59v-132h-62v105q0 84 33 122t85 38t85 -39t33 -121v-88v0z" />
    <glyph glyph-name="three" unicode="3" horiz-adv-x="298" 
d="M266 137q0 -83 -33 -116.5t-85 -33.5q-26 0 -47.5 8t-37.5 26t-24.5 46.5t-8.5 69.5v108h62v-135q0 -21 5 -34t12.5 -20t18 -9.5t20.5 -2.5q11 0 21 2.5t17.5 9.5t12.5 20t5 34v193q0 21 -9.5 34t-23 20t-28 9.5t-25.5 2.5q-5 0 -9.5 -0.5t-9.5 -1.5v58q5 -2 9.5 -2h9.5
q11 0 25.5 2.5t28 9.5t23 20t9.5 34v168q0 21 -5 34t-12.5 20t-17.5 9.5t-21 2.5q-10 0 -20.5 -2.5t-18 -9.5t-12.5 -20t-5 -34v-139h-60q-1 8 -1.5 16t-0.5 18v78q0 41 8.5 69.5t24.5 46.5t37.5 26t47.5 8q52 0 85 -33.5t33 -116.5v-103q0 -25 -3.5 -45.5t-12.5 -36
t-25.5 -26.5t-42.5 -18q52 -17 68 -51t16 -85v-128v0z" />
    <glyph glyph-name="four" unicode="4" horiz-adv-x="296" 
d="M226 212v-212h-62v212h-154v62l131 492h85v-492h60v-62h-60zM164 700l-90 -426h90v426z" />
    <glyph glyph-name="five" unicode="5" horiz-adv-x="297" 
d="M267 147q0 -82 -33 -121t-85 -39t-85.5 38.5t-33.5 121.5v57h62v-84q0 -42 18 -59t39 -17t38.5 17t17.5 59v256q0 42 -17.5 59t-38.5 17q-14 0 -24 -10.5t-17 -25.5t-10.5 -30t-4.5 -24h-63v404h211v-62h-149v-267q7 10 12.5 20t14.5 18.5t23 14t37 5.5q17 0 33 -6.5
t28 -22.5t19.5 -43t7.5 -68v-208v0z" />
    <glyph glyph-name="six" unicode="6" horiz-adv-x="304" 
d="M272 147q0 -82 -33 -121t-85 -39t-85.5 38.5t-33.5 121.5v470q0 82 33 121t85 39t85 -38t33 -122v-57h-62v84q0 42 -17.5 59t-38.5 17t-38.5 -17t-17.5 -59v-217q7 11 14.5 21t17.5 18.5t23.5 13.5t31.5 5q17 0 33 -6.5t28 -22.5t19.5 -43t7.5 -68v-198v0zM210 366
q0 42 -17.5 59t-38.5 17t-38.5 -21.5t-17.5 -54.5l-1 -246q0 -42 18 -59t39 -17t38.5 17t17.5 59v246z" />
    <glyph glyph-name="seven" unicode="7" horiz-adv-x="290" 
d="M73 0h-68l205 704h-184v62h259v-18z" />
    <glyph glyph-name="eight" unicode="8" horiz-adv-x="300" 
d="M268 137q0 -83 -33 -116.5t-85 -33.5q-26 0 -47.5 8t-37.5 26t-24.5 46.5t-8.5 69.5v163q0 50 18 78.5t46 47.5q-28 11 -46 43t-18 83v78q0 41 8.5 69.5t24.5 46.5t37.5 26t47.5 8q52 0 85 -33.5t33 -116.5v-78q0 -51 -18 -83t-46 -43q28 -19 46 -52t18 -84v-153v0z
M206 657q0 21 -5 34t-12.5 20t-17.5 9.5t-21 2.5q-10 0 -20.5 -2.5t-18 -9.5t-12.5 -20t-5 -34v-143q0 -21 5 -34t12.5 -20t18 -9.5t20.5 -2.5q11 0 21 2.5t17.5 9.5t12.5 20t5 34v143zM206 328q0 21 -5 34t-12.5 20t-17.5 9.5t-21 2.5q-10 0 -20.5 -2.5t-18 -9.5t-12.5 -20
t-5 -34v-218q0 -21 5 -34t12.5 -20t18 -9.5t20.5 -2.5q11 0 21 2.5t17.5 9.5t12.5 20t5 34v218z" />
    <glyph glyph-name="nine" unicode="9" horiz-adv-x="304" 
d="M269 147q0 -82 -33 -121t-85 -39t-85 38t-33 122v57h62v-84q0 -42 17.5 -59t38.5 -17t38.5 17t17.5 59v217l-14.5 -20.5t-17.5 -19t-23.5 -13.5t-31.5 -5q-17 0 -33 6.5t-28 22.5t-19.5 43t-7.5 68v198q0 82 33 121t85 39t85.5 -38.5t33.5 -121.5v-470v0zM207 644
q0 42 -18 59t-39 17t-38.5 -17t-17.5 -59v-246q0 -42 17.5 -59t38.5 -17t38.5 21.5t17.5 54.5l1 246v0z" />
    <glyph glyph-name="colon" unicode=":" horiz-adv-x="137" 
d="M112 382q0 -19 -14.5 -29t-31.5 -10t-30 13.5t-13 28.5q0 21 14 32t33 11q21 0 31.5 -13t10.5 -33zM112 29q0 -19 -14.5 -29t-31.5 -10t-30 13.5t-13 28.5q0 21 14 32t33 11q21 0 31.5 -13t10.5 -33z" />
    <glyph glyph-name="semicolon" unicode=";" horiz-adv-x="137" 
d="M112 382q0 -19 -14.5 -29t-31.5 -10t-30 13.5t-13 28.5q0 21 14 32t33 11q21 0 31.5 -13t10.5 -33zM-10 -135h-36l88 218h75z" />
    <glyph glyph-name="less" unicode="&#x3c;" horiz-adv-x="169" 
d="M103 91l-97 206l98 194h63l-97 -193l97 -207h-64z" />
    <glyph glyph-name="equal" unicode="=" horiz-adv-x="312" 
d="M26 374v56h262v-56h-262zM26 254v56h262v-56h-262z" />
    <glyph glyph-name="greater" unicode="&#x3e;" horiz-adv-x="169" 
d="M68 91h-63l97 193l-97 207h64l97 -206z" />
    <glyph glyph-name="question" unicode="?" horiz-adv-x="292" 
d="M258 527q0 -31 -5 -57t-17 -45.5t-32 -33t-51 -19.5v-222h-62v275q5 -2 9.5 -2h9.5q11 0 25.5 2.5t28 9.5t23 20t9.5 34v168q0 21 -5 34t-12.5 20t-17.5 9.5t-21 2.5q-10 0 -20.5 -2.5t-18 -9.5t-12.5 -20t-5 -34v-139h-62v112q0 41 8.5 69.5t24.5 46.5t37.5 26t47.5 8
q52 0 85 -33.5t33 -116.5v-103v0zM169 29q0 -19 -14.5 -29t-31.5 -10t-30 13.5t-13 28.5q0 21 14 32t33 11q21 0 31.5 -13t10.5 -33z" />
    <glyph glyph-name="at" unicode="@" horiz-adv-x="666" 
d="M645 355q0 -61 -13.5 -123t-40 -112t-66 -82t-92.5 -32q-38 0 -57.5 19.5t-23.5 57.5q-7 -14 -18.5 -25.5t-24.5 -20t-26.5 -13.5t-25.5 -5q-26 0 -38 14t-12 46q0 33 12 90l36 170q9 42 16.5 71t17.5 47t23.5 26.5t33.5 8.5q26 0 39 -15t24 -34l8 40h60l-33.5 -157.5
l-22.5 -106.5l-14 -66t-7 -35.5l-2.5 -14.5t-0.5 -4q0 -8 1 -17t4.5 -17t11.5 -13t22 -5q37 0 65 30.5t47 76t29 99.5t10 100q0 60 -13.5 113t-40.5 92.5t-67.5 63t-94.5 23.5q-72 0 -127 -41.5t-92 -108.5t-56 -149.5t-19 -165.5q0 -81 18 -142t49.5 -101.5t75.5 -60.5
t95 -20q49 0 82.5 11.5t68.5 33.5l14 -52q-20 -12 -38 -21t-37.5 -15.5t-41 -9.5t-48.5 -3q-67 0 -121.5 26.5t-92.5 75t-59 118t-21 156.5q0 97 22 191t66 168.5t109.5 120t152.5 45.5q71 0 122.5 -29.5t85 -77.5t50 -110.5t16.5 -128.5zM398 403q0 31 -27 31
q-21 0 -32 -17t-20 -59l-44 -208q-6 -28 -6 -46q0 -30 26 -30q14 0 28.5 17t23.5 59l47 220q4 17 4 33z" />
    <glyph glyph-name="A" unicode="A" horiz-adv-x="277" 
d="M215 0l-22 190h-109l-22 -190h-62l103 766h70l104 -766h-62zM142 649q0 14 -1 27.5t-3 27.5q-3 -27 -3 -55l-42 -397h91z" />
    <glyph glyph-name="B" unicode="B" horiz-adv-x="313" 
d="M281 160q0 -84 -31.5 -122t-104.5 -38h-105v766h95q73 0 104.5 -38t31.5 -122v-96q0 -19 -3 -38t-11.5 -34.5t-22.5 -27t-36 -16.5q22 -4 37.5 -16t25.5 -28.5t15 -37t5 -41.5v-111v0zM209 633q0 42 -13.5 59t-42.5 17h-51v-288h51q29 0 42.5 17t13.5 59v136zM219 290
q0 42 -18.5 59t-47.5 17h-51v-309h61q29 0 42.5 17t13.5 59v157z" />
    <glyph glyph-name="C" unicode="C" horiz-adv-x="301" 
d="M271 147q0 -51 -12 -82t-30 -48.5t-38.5 -23.5t-37.5 -6t-37.5 6.5t-38.5 24t-30 48.5t-12 81v472q0 50 12 81t30 48.5t38.5 24t37.5 6.5t37.5 -6t38.5 -23.5t30 -48.5t12 -82v-120h-62v147q0 42 -17.5 59t-38.5 17t-38.5 -17t-17.5 -59v-526q0 -42 17.5 -59t38.5 -17
t38.5 17t17.5 59v136h62v-109v0z" />
    <glyph glyph-name="D" unicode="D" horiz-adv-x="306" 
d="M271 160q0 -51 -7.5 -82t-24 -48.5t-42.5 -23.5t-62 -6h-95v766h95q36 0 62 -6t42.5 -23.5t24 -48.5t7.5 -82v-446v0zM209 633q0 42 -13.5 59t-42.5 17h-51v-652h51q29 0 42.5 17t13.5 59v500z" />
    <glyph glyph-name="E" unicode="E" 
d="M40 0v766h204v-62h-142v-287h135v-62h-135v-293h142v-62h-204z" />
    <glyph glyph-name="F" unicode="F" horiz-adv-x="249" 
d="M102 704v-287h135v-62h-135v-355h-62v766h204v-62h-142z" />
    <glyph glyph-name="G" unicode="G" horiz-adv-x="313" 
d="M281 147q0 -51 -9.5 -82t-25.5 -48.5t-37.5 -23.5t-45.5 -6t-47 6.5t-41 24t-29 48.5t-11 81v472q0 50 11 81t29 48.5t41 24t47 6.5t45.5 -6t37.5 -23.5t25.5 -48.5t9.5 -82v-120h-62v147q0 42 -17.5 59t-38.5 17q-10 0 -22 -4t-21.5 -13t-16 -23.5t-6.5 -35.5v-526
q0 -21 6.5 -35.5t16 -23.5t21.5 -13t22 -4q21 0 38.5 17t17.5 59v196h-67v60h129v-229v0z" />
    <glyph glyph-name="H" unicode="H" horiz-adv-x="316" 
d="M214 0v360h-112v-360h-62v766h62v-344h112v344h62v-766h-62z" />
    <glyph glyph-name="I" unicode="I" horiz-adv-x="142" 
d="M40 0v766h62v-766h-62z" />
    <glyph glyph-name="J" unicode="J" horiz-adv-x="142" 
d="M102 -32q0 -51 -12 -82t-30 -48.5t-38.5 -23.5t-37.5 -6h-1v57h1q21 0 38.5 17t17.5 59v825h62v-798v0z" />
    <glyph glyph-name="K" unicode="K" horiz-adv-x="301" 
d="M244 0l-141 383l122 383h62l-116 -380l135 -386h-62zM40 0v766h62v-766h-62z" />
    <glyph glyph-name="L" unicode="L" horiz-adv-x="209" 
d="M40 0v766h62v-704h102v-62h-164z" />
    <glyph glyph-name="M" unicode="M" horiz-adv-x="440" 
d="M338 0v600l7 55l-16 -53l-100 -602h-30l-88 602l-16 53l7 -55v-600h-62v766h95l80 -537l5 -69l5 70l80 536h95v-766h-62z" />
    <glyph glyph-name="N" unicode="N" horiz-adv-x="338" 
d="M234 0l-123 522l-16 53l7 -55v-520h-62v766h59l129 -546l20 -56l-12 56v546h62v-766h-64z" />
    <glyph glyph-name="O" unicode="O" horiz-adv-x="306" 
d="M271 147q0 -51 -12 -82t-30 -48.5t-38.5 -23.5t-37.5 -6t-37.5 6.5t-38.5 24t-30 48.5t-12 81v472q0 50 12 81t30 48.5t38.5 24t37.5 6.5q15 0 35.5 -6t39 -23.5t31 -48.5t12.5 -82v-472v0zM209 646q0 42 -17.5 59t-38.5 17t-38.5 -17t-17.5 -59v-526q0 -42 17.5 -59
t38.5 -17t38.5 17t17.5 59v526z" />
    <glyph glyph-name="P" unicode="P" horiz-adv-x="291" 
d="M271 493q0 -51 -7.5 -82t-24 -48.5t-42.5 -23.5t-62 -6h-33v-333h-62v766h95q36 0 62 -6t42.5 -23.5t24 -48.5t7.5 -82v-113v0zM209 631q0 42 -13.5 59t-42.5 17h-51v-315h51q29 0 42.5 17t13.5 59v163z" />
    <glyph glyph-name="Q" unicode="Q" horiz-adv-x="306" 
d="M271 147q0 -60 -16.5 -93.5t-36.5 -48.5l26 -56l26 -56q-12 -6 -23.5 -12.5l-22.5 -12.5q-14 29 -27 59.5l-26 59.5q-18 0 -41.5 4t-44.5 20t-35.5 48t-14.5 88v472q0 50 12 81t30 48.5t38.5 24t37.5 6.5t37.5 -6t38.5 -23.5t30 -48.5t12 -82v-472v0zM209 646
q0 42 -17.5 59t-38.5 17t-38.5 -17t-17.5 -59v-526q0 -42 17.5 -59t38.5 -17t38.5 17t17.5 59v526z" />
    <glyph glyph-name="R" unicode="R" horiz-adv-x="291" 
d="M229 0l-90 335h-37v-335h-62v766h107q36 0 60 -6t38.5 -23.5t20 -48.5t5.5 -82v-113q0 -59 -16 -97t-58 -49l94 -347h-62zM209 633q0 42 -13.5 59t-42.5 17h-51v-317h51q29 0 42.5 17t13.5 59v165z" />
    <glyph glyph-name="S" unicode="S" horiz-adv-x="296" 
d="M266 147q0 -42 -5.5 -72t-19 -49.5t-36 -29t-57.5 -9.5t-57.5 9.5t-36 29.5t-19 50t-5.5 71v109h62v-136q0 -42 17.5 -59t38.5 -17t38.5 17t17.5 59v103q0 26 -13 49t-32 45.5t-42 45.5t-42 48.5t-32 55.5t-13 66v86q0 50 12 81t30 48.5t38.5 24t37.5 6.5t37.5 -6
t38.5 -23.5t30 -48.5t12 -82v-120h-62v147q0 42 -17.5 59t-38.5 17t-38.5 -17t-17.5 -59v-104q0 -34 13 -60t32 -48.5t42 -43t42 -43.5t32 -50t13 -63v-87v0z" />
    <glyph glyph-name="T" unicode="T" horiz-adv-x="262" 
d="M162 704v-704h-62v704h-95v62h252v-62h-95z" />
    <glyph glyph-name="U" unicode="U" horiz-adv-x="310" 
d="M273 147q0 -51 -12 -82t-30 -48.5t-38.5 -23.5t-37.5 -6t-37.5 6.5t-38.5 24t-30 48.5t-12 81v619h62v-642q0 -42 17.5 -59t38.5 -17t38.5 17t17.5 59v642h62v-619v0z" />
    <glyph glyph-name="V" unicode="V" horiz-adv-x="257" 
d="M164 0h-70l-94 766h62l64 -639q0 -28 3 -55q3 27 3 55l63 639h62z" />
    <glyph glyph-name="W" unicode="W" horiz-adv-x="434" 
d="M351 0h-70l-60 576q-2 20 -2 35.5t-2 35.5q-2 -20 -2 -35.5t-2 -35.5l-59 -576h-70l-84 766h62l54 -615q0 -28 3 -55q3 27 3 55l63 615h64l63 -611q0 -12 1 -24.5t3 -24.5q2 12 2.5 24.5t1.5 24.5l52 611h62z" />
    <glyph glyph-name="X" unicode="X" horiz-adv-x="302" 
d="M240 0l-84 307l-94 -307h-62l134 394l-128 372h63l87 -281l81 281h63l-114 -373l116 -393h-62z" />
    <glyph glyph-name="Y" unicode="Y" horiz-adv-x="278" 
d="M161 287v-287h-60v286l-101 481h63l71 -343l81 344h63z" />
    <glyph glyph-name="Z" unicode="Z" horiz-adv-x="256" 
d="M10 0v62l161 642h-152v62h227v-18l-172 -686h172v-62h-236z" />
    <glyph glyph-name="bracketleft" unicode="[" horiz-adv-x="182" 
d="M47 -170v938h136v-52h-78v-831h78v-55h-136z" />
    <glyph glyph-name="backslash" unicode="\" horiz-adv-x="252" 
d="M191 -20l-248 788h57l249 -788h-58z" />
    <glyph glyph-name="bracketright" unicode="]" horiz-adv-x="182" 
d="M-1 -169v55h76v830h-76v52h136v-937h-136z" />
    <glyph glyph-name="asciicircum" unicode="^" horiz-adv-x="329" 
d="M309 717q-21 0 -28.5 -17t-7.5 -59v-75h65v-54h-65v-512h-60v512h-98v-512h-60v512h-55v54h55v56q0 82 23 116t63 34q11 0 20.5 -1.5t19.5 -3.5v-50h-30q-21 0 -28.5 -17t-7.5 -59v-75h98v56q0 82 23 116t63 34q11 0 20.5 -1.5t19.5 -3.5v-50h-30z" />
    <glyph glyph-name="underscore" unicode="_" horiz-adv-x="223" 
d="M0 -28v56h223v-56h-223z" />
    <glyph glyph-name="grave" unicode="`" horiz-adv-x="98" 
d="M53 642l-63 101h71l46 -101h-54z" />
    <glyph glyph-name="a" unicode="a" horiz-adv-x="254" 
d="M175 0l-13 46q-3 -7 -8.5 -16.5t-13.5 -17.5t-18 -13.5t-23 -5.5q-40 0 -54.5 33.5t-14.5 116.5v10q0 42 2 71t8 47t17.5 26.5t31.5 8.5q26 0 42.5 -15t30.5 -34v183q0 42 -7.5 59t-28.5 17t-28.5 -17t-7.5 -59v-54h-60v35q0 68 20.5 109t75.5 41q54 0 75 -33t21 -112
v-426h-47zM162 184q0 34 -8 49t-28 15q-21 0 -28.5 -17t-7.5 -59v-48q0 -42 7.5 -59t28.5 -17q14 0 25 17t11 59v60z" />
    <glyph glyph-name="b" unicode="b" horiz-adv-x="262" 
d="M232 143q0 -83 -14.5 -116.5t-54.5 -33.5q-13 0 -23 5.5t-18 13.5t-13.5 17.5t-8.5 16.5l-13 -46h-47v767h60v-240q14 19 30.5 34t42.5 15q20 0 31.5 -8.5t17.5 -26.5t8 -47t2 -71v-280v0zM172 442q0 42 -7.5 59t-28.5 17q-20 0 -28 -15t-8 -49v-330q0 -42 11 -59t25 -17
q21 0 28.5 17t7.5 59v318z" />
    <glyph glyph-name="c" unicode="c" horiz-adv-x="247" 
d="M222 141q0 -42 -4.5 -70.5t-16 -46t-30 -25.5t-45.5 -8q-55 0 -75.5 34t-20.5 116v288q0 82 20.5 116t75.5 34q27 0 45.5 -8t30 -25.5t16 -46t4.5 -70.5v-70h-60v89q0 42 -7.5 59t-28.5 17t-28.5 -17t-7.5 -59v-326q0 -42 7.5 -59t28.5 -17t28.5 17t7.5 59v100h60v-81v0z
" />
    <glyph glyph-name="d" unicode="d" horiz-adv-x="262" 
d="M175 0l-13 46q-3 -7 -8.5 -16.5t-13.5 -17.5t-18 -13.5t-23 -5.5q-40 0 -54.5 33.5t-14.5 116.5v280q0 42 2 71t8 47t17.5 26.5t31.5 8.5q26 0 42.5 -15t30.5 -34v240h60v-767h-47zM162 454q0 34 -8 49t-28 15q-21 0 -28.5 -17t-7.5 -59v-318q0 -42 7.5 -59t28.5 -17
q14 0 25 17t11 59v330z" />
    <glyph glyph-name="e" unicode="e" horiz-adv-x="247" 
d="M222 141q0 -42 -4.5 -70.5t-16 -46t-30 -25.5t-45.5 -8q-55 0 -75.5 34t-20.5 116v280q0 82 20.5 116t75.5 34q27 0 45.5 -8t30 -25.5t16 -46t4.5 -70.5v-160h-132v-139q0 -42 7.5 -59t28.5 -17t28.5 17t7.5 59v65h60v-46v0zM162 440q0 42 -7.5 59t-28.5 17t-28.5 -17
t-7.5 -59v-125h72v125z" />
    <glyph glyph-name="f" unicode="f" horiz-adv-x="171" 
d="M151 717q-21 0 -28.5 -17t-7.5 -59v-75h65v-54h-65v-512h-60v512h-55v54h55v56q0 82 23 116t63 34q11 0 20.5 -1.5t19.5 -3.5v-50h-30z" />
    <glyph glyph-name="g" unicode="g" horiz-adv-x="257" 
d="M222 -58q0 -82 -20.5 -116t-75.5 -34t-75.5 41t-20.5 109v1h60q0 -42 7.5 -69t28.5 -27t28.5 17t7.5 59v118q-4 -11 -12.5 -20t-19 -15.5t-21.5 -10t-20 -3.5q-20 0 -31.5 8.5t-17.5 26.5t-8 47t-2 71v279q0 83 14.5 116.5t54.5 33.5q13 0 23 -5.5t18 -13.5t13.5 -17
t8.5 -17l13 46h47v-625v0zM162 443q0 14 -1.5 27.5t-6 24t-11 17.5t-17.5 7q-21 0 -28.5 -17t-7.5 -59v-317q0 -42 7.5 -59t28.5 -17q20 0 28 19t8 45v329z" />
    <glyph glyph-name="h" unicode="h" horiz-adv-x="264" 
d="M172 0v442q0 42 -7.5 59t-28.5 17q-20 0 -28 -15t-8 -49v-454h-60v767h60v-240q30 49 54 49q40 0 59 -34.5t19 -118.5v-423h-60z" />
    <glyph glyph-name="i" unicode="i" horiz-adv-x="130" 
d="M113 686q0 -21 -14 -32t-33 -11q-21 0 -31.5 13t-10.5 33q0 19 14.5 29t31.5 10t30 -13.5t13 -28.5zM35 0v567h60v-567h-60z" />
    <glyph glyph-name="j" unicode="j" horiz-adv-x="131" 
d="M113 686q0 -21 -14 -32t-33 -11q-21 0 -31.5 13t-10.5 33q0 19 14.5 29t31.5 10t30 -13.5t13 -28.5zM96 -56q0 -41 -3 -69.5t-12.5 -46.5t-26.5 -26t-44 -8q-11 0 -20.5 1.5t-19.5 3.5v50h30q21 0 28.5 17t7.5 59v643h60v-624v0z" />
    <glyph glyph-name="k" unicode="k" horiz-adv-x="267" 
d="M167 293l97 -293h-61l-102 290l102 277h62zM40 0v766h60v-766h-60z" />
    <glyph glyph-name="l" unicode="l" horiz-adv-x="140" 
d="M40 0v767h60v-767h-60z" />
    <glyph glyph-name="m" unicode="m" horiz-adv-x="391" 
d="M299 0v443q0 42 -7.5 59t-28.5 17t-28.5 -20.5t-7.5 -55.5v-443h-60v453q0 42 -7.5 54t-28.5 12t-28.5 -20.5t-7.5 -55.5v-443h-60v567h47l13 -46q14 23 26 38t37 15q22 0 38 -15t24 -50q10 31 27 48t43 17q40 0 54.5 -33.5t14.5 -116.5v-424h-60z" />
    <glyph glyph-name="n" unicode="n" 
d="M167 2v440q0 42 -7.5 59t-28.5 17q-20 0 -28 -15t-8 -49v-452h-60v565h50l10 -40q30 49 54 49q40 0 59 -34.5t19 -118.5v-421h-60z" />
    <glyph glyph-name="o" unicode="o" horiz-adv-x="252" 
d="M222 141q0 -42 -4.5 -70.5t-16 -46t-30 -25.5t-45.5 -8q-55 0 -75.5 34t-20.5 116v280q0 82 20.5 116t75.5 34q27 0 45.5 -8t30 -25.5t16 -46t4.5 -70.5v-280v0zM162 440q0 42 -7.5 59t-28.5 17t-28.5 -17t-7.5 -59v-318q0 -42 7.5 -59t28.5 -17t28.5 17t7.5 59v318z" />
    <glyph glyph-name="p" unicode="p" horiz-adv-x="257" 
d="M227 145q0 -42 -2 -71t-8 -47t-17.5 -26.5t-31.5 -8.5q-26 0 -42.5 15t-30.5 34v-240h-60v767h47l13 -46q3 8 8.5 17t13.5 17t18 13.5t23 5.5q40 0 54.5 -33.5t14.5 -116.5v-280v0zM167 444q0 42 -7.5 59t-28.5 17q-14 0 -25 -17t-11 -59v-330q0 -34 8 -49t28 -15
q21 0 28.5 17t7.5 59v318z" />
    <glyph glyph-name="q" unicode="q" horiz-adv-x="257" 
d="M162 -199v240q-14 -19 -30.5 -34t-42.5 -15q-20 0 -31.5 8.5t-17.5 26.5t-8 47t-2 71v280q0 83 14.5 116.5t54.5 33.5q13 0 23 -5.5t18 -13.5t13.5 -17t8.5 -17l13 46h47v-767h-60zM162 444q0 42 -11 59t-25 17q-21 0 -28.5 -17t-7.5 -59v-318q0 -42 7.5 -59t28.5 -17
q20 0 28 15t8 49v330z" />
    <glyph glyph-name="r" unicode="r" horiz-adv-x="186" 
d="M169 497q-11 3 -21.5 7t-19.5 4q-14 0 -23.5 -17t-9.5 -68v-423h-60v567h47l13 -46q3 8 8.5 17t13.5 17t18 13.5t23 5.5q8 0 14.5 -2t11.5 -4l10 -6z" />
    <glyph glyph-name="s" unicode="s" horiz-adv-x="242" 
d="M222 152q0 -84 -20.5 -122t-75.5 -38q-62 0 -84 39t-22 121v35h60v-64q0 -42 8.5 -59t37.5 -17q21 0 28.5 19.5t7.5 76.5q0 25 -10.5 46t-26.5 40l-34 38.5t-34 41.5t-26.5 48.5t-10.5 60.5q0 82 22 121t84 39q55 0 75.5 -38t20.5 -122v-40h-60v69q0 42 -7.5 59t-28.5 17
q-14 0 -23 -4.5t-14 -15t-7 -28.5t-2 -46q0 -33 10.5 -57t26.5 -43t34 -36.5t34 -37t26.5 -44.5t10.5 -59z" />
    <glyph glyph-name="t" unicode="t" horiz-adv-x="176" 
d="M171 -3q-10 -2 -19.5 -3.5t-20.5 -1.5q-27 0 -44 8t-26.5 26t-12.5 46.5t-3 69.5v370h-45v55h45v140h60v-140h65v-55h-65v-389q0 -42 7.5 -59t28.5 -17h30v-50v0z" />
    <glyph glyph-name="u" unicode="u" 
d="M174 1l-10 40q-30 -49 -54 -49q-40 0 -59 34.5t-19 118.5v422h60v-441q0 -42 7.5 -59t28.5 -17q20 0 28 15t8 49v453h60v-566h-50z" />
    <glyph glyph-name="v" unicode="v" horiz-adv-x="219" 
d="M143 0h-66l-77 567h64l42 -432q0 -28 3 -55q3 27 3 55l43 432h64z" />
    <glyph glyph-name="w" unicode="w" horiz-adv-x="377" 
d="M301 0h-64l-44 374q-2 16 -2.5 31.5t-2.5 31.5q-1 -16 -2.5 -32t-1.5 -32l-43 -373h-64l-77 567h64l42 -432q0 -28 3 -55q3 27 3 55l43 432h67l42 -432q0 -28 3 -55q3 27 3 55l43 432h64z" />
    <glyph glyph-name="x" unicode="x" horiz-adv-x="231" 
d="M172 0l-61 199l-53 -199h-58l89 290l-88 277h59l55 -182l53 182h61l-92 -278l94 -289h-59z" />
    <glyph glyph-name="y" unicode="y" horiz-adv-x="229" 
d="M113 -200h-64l28 176l-77 591h64l48 -432q0 -13 0.5 -26t1.5 -25l2 6q1 11 1.5 22.5t0.5 22.5l47 432h64z" />
    <glyph glyph-name="z" unicode="z" horiz-adv-x="230" 
d="M78 60h132v-60h-202v53l141 454h-122v60h195v-38z" />
    <glyph glyph-name="braceleft" unicode="{" horiz-adv-x="308" 
d="M291 686q0 -21 -14 -32t-33 -11q-21 0 -31.5 13t-10.5 33q0 19 14.5 29t31.5 10t30 -13.5t13 -28.5zM213 0v567h60v-567h-60zM151 717q-21 0 -28.5 -17t-7.5 -59v-75h65v-54h-65v-512h-60v512h-55v54h55v56q0 82 23 116t63 34q11 0 20.5 -1.5t19.5 -3.5v-50h-30z" />
    <glyph glyph-name="bar" unicode="|" horiz-adv-x="142" 
d="M40 -200v966h62v-966h-62z" />
    <glyph glyph-name="braceright" unicode="}" horiz-adv-x="314" 
d="M214 0v767h60v-767h-60zM151 717q-21 0 -28.5 -17t-7.5 -59v-75h65v-54h-65v-512h-60v512h-55v54h55v56q0 82 23 116t63 34q11 0 20.5 -1.5t19.5 -3.5v-50h-30z" />
    <glyph glyph-name="asciitilde" unicode="~" horiz-adv-x="466" 
d="M449 686q0 -21 -14 -32t-33 -11q-21 0 -31.5 13t-10.5 33q0 19 14.5 29t31.5 10t30 -13.5t13 -28.5zM371 0v567h60v-567h-60zM309 717q-21 0 -28.5 -17t-7.5 -59v-75h65v-54h-65v-512h-60v512h-98v-512h-60v512h-55v54h55v56q0 82 23 116t63 34q11 0 20.5 -1.5t19.5 -3.5
v-50h-30q-21 0 -28.5 -17t-7.5 -59v-75h98v56q0 82 23 116t63 34q11 0 20.5 -1.5t19.5 -3.5v-50h-30z" />
    <glyph glyph-name="Adieresis" unicode="&#xc4;" horiz-adv-x="277" 
d="M248 870q0 -19 -14.5 -29t-31.5 -10t-30 13.5t-13 28.5q0 21 14 32t33 11q21 0 31.5 -13t10.5 -33zM118 870q0 -19 -14.5 -29t-31.5 -10t-30 13.5t-13 28.5q0 21 14 32t33 11q21 0 31.5 -13t10.5 -33zM215 0l-22 190h-109l-22 -190h-62l103 766h70l104 -766h-62zM142 649
q0 14 -1 27.5t-3 27.5q-3 -27 -3 -55l-42 -397h91z" />
    <glyph glyph-name="Aring" unicode="&#xc5;" horiz-adv-x="277" 
d="M203 881q0 -27 -19.5 -46t-45.5 -19q-11 0 -22.5 4t-20.5 12t-15 20.5t-6 29.5q0 27 19.5 45.5t46.5 18.5q26 0 44.5 -19.5t18.5 -45.5zM215 0l-22 190h-109l-22 -190h-62l103 766h70l104 -766h-62zM175 882q0 14 -11 25t-26 11q-15 -1 -25 -12t-10 -25q0 -18 11.5 -27
t25.5 -9t25 11t10 26zM142 649q0 14 -1 27.5t-3 27.5q-3 -27 -3 -55l-42 -397h91z" />
    <glyph glyph-name="Ccedilla" unicode="&#xc7;" horiz-adv-x="301" 
d="M271 147q0 -40 -8 -68.5t-20.5 -46.5t-28.5 -27.5t-31 -13.5l-55 -95h-27l37 92q-17 2 -35 10.5t-33 26.5t-25 47.5t-10 74.5v472q0 50 12 81t30 48.5t38.5 24t37.5 6.5t37.5 -6t38.5 -23.5t30 -48.5t12 -82v-120h-62v147q0 42 -17.5 59t-38.5 17t-38.5 -17t-17.5 -59
v-526q0 -42 17.5 -59t38.5 -17t38.5 17t17.5 59v136h62v-109v0z" />
    <glyph glyph-name="Eacute" unicode="&#xc9;" 
d="M175 841h-53l44 101h71zM40 0v766h204v-62h-142v-287h135v-62h-135v-293h142v-62h-204z" />
    <glyph glyph-name="Ntilde" unicode="&#xd1;" horiz-adv-x="338" 
d="M262 903q-5 -29 -22 -46t-43 -17q-17 0 -30.5 8.5t-28.5 8.5q-8 0 -11 -4.5t-5 -11.5h-56q1 5 3.5 15.5t9 21t18.5 18.5t31 8q17 0 33 -7.5t30 -7.5q8 0 10.5 7t2.5 8l58 -1v0zM234 0l-123 522l-16 53l7 -55v-520h-62v766h59l129 -546l20 -56l-12 56v546h62v-766h-64z
" />
    <glyph glyph-name="Odieresis" unicode="&#xd6;" horiz-adv-x="306" 
d="M262 870q0 -19 -14.5 -29t-31.5 -10t-30 13.5t-13 28.5q0 21 14 32t33 11q21 0 31.5 -13t10.5 -33zM132 870q0 -19 -14.5 -29t-31.5 -10t-30 13.5t-13 28.5q0 21 14 32t33 11q21 0 31.5 -13t10.5 -33zM271 147q0 -51 -12 -82t-30 -48.5t-38.5 -23.5t-37.5 -6t-37.5 6.5
t-38.5 24t-30 48.5t-12 81v472q0 50 12 81t30 48.5t38.5 24t37.5 6.5q15 0 35.5 -6t39 -23.5t31 -48.5t12.5 -82v-472v0zM209 646q0 42 -17.5 59t-38.5 17t-38.5 -17t-17.5 -59v-526q0 -42 17.5 -59t38.5 -17t38.5 17t17.5 59v526z" />
    <glyph glyph-name="Udieresis" unicode="&#xdc;" horiz-adv-x="310" 
d="M264 870q0 -19 -14.5 -29t-31.5 -10t-30 13.5t-13 28.5q0 21 14 32t33 11q21 0 31.5 -13t10.5 -33zM134 870q0 -19 -14.5 -29t-31.5 -10t-30 13.5t-13 28.5q0 21 14 32t33 11q21 0 31.5 -13t10.5 -33zM273 147q0 -51 -12 -82t-30 -48.5t-38.5 -23.5t-37.5 -6t-37.5 6.5
t-38.5 24t-30 48.5t-12 81v619h62v-642q0 -42 17.5 -59t38.5 -17t38.5 17t17.5 59v642h62v-619v0z" />
    <glyph glyph-name="aacute" unicode="&#xe1;" horiz-adv-x="254" 
d="M151 642h-53l44 101h71zM175 0l-13 46q-3 -7 -8.5 -16.5t-13.5 -17.5t-18 -13.5t-23 -5.5q-40 0 -54.5 33.5t-14.5 116.5v10q0 42 2 71t8 47t17.5 26.5t31.5 8.5q26 0 42.5 -15t30.5 -34v183q0 42 -7.5 59t-28.5 17t-28.5 -17t-7.5 -59v-54h-60v35q0 76 20.5 113t75.5 37
q54 0 75 -33t21 -112v-426h-47zM162 184q0 34 -8 49t-28 15q-21 0 -28.5 -17t-7.5 -59v-48q0 -42 7.5 -59t28.5 -17q14 0 25 17t11 59v60z" />
    <glyph glyph-name="agrave" unicode="&#xe0;" horiz-adv-x="254" 
d="M111 642l-63 101h71l46 -101h-54zM175 0l-13 46q-3 -7 -8.5 -16.5t-13.5 -17.5t-18 -13.5t-23 -5.5q-40 0 -54.5 33.5t-14.5 116.5v10q0 42 2 71t8 47t17.5 26.5t31.5 8.5q26 0 42.5 -15t30.5 -34v183q0 42 -7.5 59t-28.5 17t-28.5 -17t-7.5 -59v-54h-60v35
q0 76 20.5 113t75.5 37q54 0 75 -33t21 -112v-426h-47zM162 184q0 34 -8 49t-28 15q-21 0 -28.5 -17t-7.5 -59v-48q0 -42 7.5 -59t28.5 -17q14 0 25 17t11 59v60z" />
    <glyph glyph-name="acircumflex" unicode="&#xe2;" horiz-adv-x="254" 
d="M166 642l-39 62l-36 -62h-56l55 101h70l59 -101h-53zM175 0l-13 46q-3 -7 -8.5 -16.5t-13.5 -17.5t-18 -13.5t-23 -5.5q-40 0 -54.5 33.5t-14.5 116.5v10q0 42 2 71t8 47t17.5 26.5t31.5 8.5q26 0 42.5 -15t30.5 -34v183q0 42 -7.5 59t-28.5 17t-28.5 -17t-7.5 -59v-54
h-60v35q0 76 20.5 113t75.5 37q54 0 75 -33t21 -112v-426h-47zM162 184q0 34 -8 49t-28 15q-21 0 -28.5 -17t-7.5 -59v-48q0 -42 7.5 -59t28.5 -17q14 0 25 17t11 59v60z" />
    <glyph glyph-name="adieresis" unicode="&#xe4;" horiz-adv-x="254" 
d="M236 671q0 -19 -14.5 -29t-31.5 -10t-30 13.5t-13 28.5q0 21 14 32t33 11q21 0 31.5 -13t10.5 -33zM106 671q0 -19 -14.5 -29t-31.5 -10t-30 13.5t-13 28.5q0 21 14 32t33 11q21 0 31.5 -13t10.5 -33zM175 0l-13 46q-3 -7 -8.5 -16.5t-13.5 -17.5t-18 -13.5t-23 -5.5
q-40 0 -54.5 33.5t-14.5 116.5v10q0 42 2 71t8 47t17.5 26.5t31.5 8.5q26 0 42.5 -15t30.5 -34v183q0 42 -7.5 59t-28.5 17t-28.5 -17t-7.5 -59v-54h-60v35q0 76 20.5 113t75.5 37q54 0 75 -33t21 -112v-426h-47zM162 184q0 34 -8 49t-28 15q-21 0 -28.5 -17t-7.5 -59v-48
q0 -42 7.5 -59t28.5 -17q14 0 25 17t11 59v60z" />
    <glyph glyph-name="atilde" unicode="&#xe3;" horiz-adv-x="254" 
d="M225 704q-5 -29 -22 -46t-43 -17q-17 0 -30.5 8.5t-28.5 8.5q-8 0 -11 -4.5t-5 -11.5h-56q1 5 3.5 15.5t9 21t18.5 18.5t31 8q17 0 33 -7.5t30 -7.5q8 0 10.5 7t2.5 8l58 -1v0zM175 0l-13 46q-3 -7 -8.5 -16.5t-13.5 -17.5t-18 -13.5t-23 -5.5q-40 0 -54.5 33.5
t-14.5 116.5v10q0 42 2 71t8 47t17.5 26.5t31.5 8.5q26 0 42.5 -15t30.5 -34v183q0 42 -7.5 59t-28.5 17t-28.5 -17t-7.5 -59v-54h-60v35q0 76 20.5 113t75.5 37q54 0 75 -33t21 -112v-426h-47zM162 184q0 34 -8 49t-28 15q-21 0 -28.5 -17t-7.5 -59v-48q0 -42 7.5 -59
t28.5 -17q14 0 25 17t11 59v60z" />
    <glyph glyph-name="aring" unicode="&#xe5;" horiz-adv-x="254" 
d="M191 682q0 -27 -19.5 -46t-45.5 -19q-11 0 -22.5 4t-20.5 12t-15 20.5t-6 29.5q0 27 19.5 45.5t46.5 18.5q26 0 44.5 -19.5t18.5 -45.5zM175 0l-13 46q-3 -7 -8.5 -16.5t-13.5 -17.5t-18 -13.5t-23 -5.5q-40 0 -54.5 33.5t-14.5 116.5v10q0 42 2 71t8 47t17.5 26.5
t31.5 8.5q26 0 42.5 -15t30.5 -34v183q0 42 -7.5 59t-28.5 17t-28.5 -17t-7.5 -59v-54h-60v35q0 76 20.5 113t75.5 37q54 0 75 -33t21 -112v-426h-47zM163 683q0 14 -11 25t-26 11q-15 -1 -25 -12t-10 -25q0 -18 11.5 -27t25.5 -9t25 11t10 26zM162 184q0 34 -8 49t-28 15
q-21 0 -28.5 -17t-7.5 -59v-48q0 -42 7.5 -59t28.5 -17q14 0 25 17t11 59v60z" />
    <glyph glyph-name="ccedilla" unicode="&#xe7;" horiz-adv-x="247" 
d="M222 141q0 -71 -14.5 -105t-51.5 -42l-50 -87h-27l34 85q-47 4 -65 38.5t-18 110.5v288q0 82 20.5 116t75.5 34q27 0 45.5 -8t30 -25.5t16 -46t4.5 -70.5v-70h-60v89q0 42 -7.5 59t-28.5 17t-28.5 -17t-7.5 -59v-326q0 -42 7.5 -59t28.5 -17t28.5 17t7.5 59v100h60v-81v0
z" />
    <glyph glyph-name="eacute" unicode="&#xe9;" horiz-adv-x="247" 
d="M148 642h-53l44 101h71zM222 141q0 -42 -4.5 -70.5t-16 -46t-30 -25.5t-45.5 -8q-55 0 -75.5 34t-20.5 116v280q0 82 20.5 116t75.5 34q27 0 45.5 -8t30 -25.5t16 -46t4.5 -70.5v-160h-132v-139q0 -42 7.5 -59t28.5 -17t28.5 17t7.5 59v65h60v-46v0zM162 440
q0 42 -7.5 59t-28.5 17t-28.5 -17t-7.5 -59v-125h72v125z" />
    <glyph glyph-name="egrave" unicode="&#xe8;" horiz-adv-x="247" 
d="M108 642l-63 101h71l46 -101h-54zM222 141q0 -42 -4.5 -70.5t-16 -46t-30 -25.5t-45.5 -8q-55 0 -75.5 34t-20.5 116v280q0 82 20.5 116t75.5 34q27 0 45.5 -8t30 -25.5t16 -46t4.5 -70.5v-160h-132v-139q0 -42 7.5 -59t28.5 -17t28.5 17t7.5 59v65h60v-46v0zM162 440
q0 42 -7.5 59t-28.5 17t-28.5 -17t-7.5 -59v-125h72v125z" />
    <glyph glyph-name="ecircumflex" unicode="&#xea;" horiz-adv-x="247" 
d="M162 642l-39 62l-36 -62h-56l55 101h70l59 -101h-53zM222 141q0 -42 -4.5 -70.5t-16 -46t-30 -25.5t-45.5 -8q-55 0 -75.5 34t-20.5 116v280q0 82 20.5 116t75.5 34q27 0 45.5 -8t30 -25.5t16 -46t4.5 -70.5v-160h-132v-139q0 -42 7.5 -59t28.5 -17t28.5 17t7.5 59v65h60
v-46v0zM162 440q0 42 -7.5 59t-28.5 17t-28.5 -17t-7.5 -59v-125h72v125z" />
    <glyph glyph-name="edieresis" unicode="&#xeb;" horiz-adv-x="247" 
d="M233 671q0 -19 -14.5 -29t-31.5 -10t-30 13.5t-13 28.5q0 21 14 32t33 11q21 0 31.5 -13t10.5 -33zM103 671q0 -19 -14.5 -29t-31.5 -10t-30 13.5t-13 28.5q0 21 14 32t33 11q21 0 31.5 -13t10.5 -33zM222 141q0 -42 -4.5 -70.5t-16 -46t-30 -25.5t-45.5 -8
q-55 0 -75.5 34t-20.5 116v280q0 82 20.5 116t75.5 34q27 0 45.5 -8t30 -25.5t16 -46t4.5 -70.5v-160h-132v-139q0 -42 7.5 -59t28.5 -17t28.5 17t7.5 59v65h60v-46v0zM162 440q0 42 -7.5 59t-28.5 17t-28.5 -17t-7.5 -59v-125h72v125z" />
    <glyph glyph-name="iacute" unicode="&#xed;" horiz-adv-x="130" 
d="M90 642h-53l44 101h71zM35 0v567h60v-567h-60z" />
    <glyph glyph-name="igrave" unicode="&#xec;" horiz-adv-x="130" 
d="M43 642l-63 101h71l46 -101h-54zM35 0v567h60v-567h-60z" />
    <glyph glyph-name="icircumflex" unicode="&#xee;" horiz-adv-x="130" 
d="M104 642l-39 62l-36 -62h-56l55 101h70l59 -101h-53zM35 0v567h60v-567h-60z" />
    <glyph glyph-name="idieresis" unicode="&#xef;" horiz-adv-x="130" 
d="M175 671q0 -19 -14.5 -29t-31.5 -10t-30 13.5t-13 28.5q0 21 14 32t33 11q21 0 31.5 -13t10.5 -33zM45 671q0 -19 -14.5 -29t-31.5 -10t-30 13.5t-13 28.5q0 21 14 32t33 11q21 0 31.5 -13t10.5 -33zM35 0v567h60v-567h-60z" />
    <glyph glyph-name="ntilde" unicode="&#xf1;" horiz-adv-x="260" 
d="M227 704q-5 -29 -22 -46t-43 -17q-17 0 -30.5 8.5t-28.5 8.5q-8 0 -11 -4.5t-5 -11.5h-56q1 5 3.5 15.5t9 21t18.5 18.5t31 8q17 0 33 -7.5t30 -7.5q8 0 10.5 7t2.5 8l58 -1v0zM167 2v440q0 42 -7.5 59t-28.5 17q-20 0 -28 -15t-8 -49v-452h-60v565h50l10 -40
q30 49 54 49q40 0 59 -34.5t19 -118.5v-421h-60z" />
    <glyph glyph-name="oacute" unicode="&#xf3;" horiz-adv-x="252" 
d="M149 642h-53l44 101h71zM222 141q0 -42 -4.5 -70.5t-16 -46t-30 -25.5t-45.5 -8q-55 0 -75.5 34t-20.5 116v280q0 82 20.5 116t75.5 34q27 0 45.5 -8t30 -25.5t16 -46t4.5 -70.5v-280v0zM162 440q0 42 -7.5 59t-28.5 17t-28.5 -17t-7.5 -59v-318q0 -42 7.5 -59t28.5 -17
t28.5 17t7.5 59v318z" />
    <glyph glyph-name="ograve" unicode="&#xf2;" horiz-adv-x="252" 
d="M100 642l-63 101h71l46 -101h-54zM222 141q0 -42 -4.5 -70.5t-16 -46t-30 -25.5t-45.5 -8q-55 0 -75.5 34t-20.5 116v280q0 82 20.5 116t75.5 34q27 0 45.5 -8t30 -25.5t16 -46t4.5 -70.5v-280v0zM162 440q0 42 -7.5 59t-28.5 17t-28.5 -17t-7.5 -59v-318q0 -42 7.5 -59
t28.5 -17t28.5 17t7.5 59v318z" />
    <glyph glyph-name="ocircumflex" unicode="&#xf4;" horiz-adv-x="252" 
d="M162 642l-39 62l-36 -62h-56l55 101h70l59 -101h-53zM222 141q0 -42 -4.5 -70.5t-16 -46t-30 -25.5t-45.5 -8q-55 0 -75.5 34t-20.5 116v280q0 82 20.5 116t75.5 34q27 0 45.5 -8t30 -25.5t16 -46t4.5 -70.5v-280v0zM162 440q0 42 -7.5 59t-28.5 17t-28.5 -17t-7.5 -59
v-318q0 -42 7.5 -59t28.5 -17t28.5 17t7.5 59v318z" />
    <glyph glyph-name="odieresis" unicode="&#xf6;" horiz-adv-x="252" 
d="M236 671q0 -19 -14.5 -29t-31.5 -10t-30 13.5t-13 28.5q0 21 14 32t33 11q21 0 31.5 -13t10.5 -33zM106 671q0 -19 -14.5 -29t-31.5 -10t-30 13.5t-13 28.5q0 21 14 32t33 11q21 0 31.5 -13t10.5 -33zM222 141q0 -42 -4.5 -70.5t-16 -46t-30 -25.5t-45.5 -8
q-55 0 -75.5 34t-20.5 116v280q0 82 20.5 116t75.5 34q27 0 45.5 -8t30 -25.5t16 -46t4.5 -70.5v-280v0zM162 440q0 42 -7.5 59t-28.5 17t-28.5 -17t-7.5 -59v-318q0 -42 7.5 -59t28.5 -17t28.5 17t7.5 59v318z" />
    <glyph glyph-name="otilde" unicode="&#xf5;" horiz-adv-x="252" 
d="M223 704q-5 -29 -22 -46t-43 -17q-17 0 -30.5 8.5t-28.5 8.5q-8 0 -11 -4.5t-5 -11.5h-56q1 5 3.5 15.5t9 21t18.5 18.5t31 8q17 0 33 -7.5t30 -7.5q8 0 10.5 7t2.5 8l58 -1v0zM222 141q0 -42 -4.5 -70.5t-16 -46t-30 -25.5t-45.5 -8q-55 0 -75.5 34t-20.5 116v280
q0 82 20.5 116t75.5 34q27 0 45.5 -8t30 -25.5t16 -46t4.5 -70.5v-280v0zM162 440q0 42 -7.5 59t-28.5 17t-28.5 -17t-7.5 -59v-318q0 -42 7.5 -59t28.5 -17t28.5 17t7.5 59v318z" />
    <glyph glyph-name="uacute" unicode="&#xfa;" 
d="M155 642h-53l44 101h71zM174 1l-10 40q-30 -49 -54 -49q-40 0 -59 34.5t-19 118.5v422h60v-441q0 -42 7.5 -59t28.5 -17q20 0 28 15t8 49v453h60v-566h-50z" />
    <glyph glyph-name="ugrave" unicode="&#xf9;" 
d="M114 642l-63 101h71l46 -101h-54zM174 1l-10 40q-30 -49 -54 -49q-40 0 -59 34.5t-19 118.5v422h60v-441q0 -42 7.5 -59t28.5 -17q20 0 28 15t8 49v453h60v-566h-50z" />
    <glyph glyph-name="ucircumflex" unicode="&#xfb;" 
d="M165 642l-39 62l-36 -62h-56l55 101h70l59 -101h-53zM174 1l-10 40q-30 -49 -54 -49q-40 0 -59 34.5t-19 118.5v422h60v-441q0 -42 7.5 -59t28.5 -17q20 0 28 15t8 49v453h60v-566h-50z" />
    <glyph glyph-name="udieresis" unicode="&#xfc;" 
d="M239 671q0 -19 -14.5 -29t-31.5 -10t-30 13.5t-13 28.5q0 21 14 32t33 11q21 0 31.5 -13t10.5 -33zM109 671q0 -19 -14.5 -29t-31.5 -10t-30 13.5t-13 28.5q0 21 14 32t33 11q21 0 31.5 -13t10.5 -33zM174 1l-10 40q-30 -49 -54 -49q-40 0 -59 34.5t-19 118.5v422h60
v-441q0 -42 7.5 -59t28.5 -17q20 0 28 15t8 49v453h60v-566h-50z" />
    <glyph glyph-name="dagger" unicode="&#x2020;" horiz-adv-x="209" 
d="M134 540v-540h-62v540h-67v56h67v170h62v-170h70v-56h-70z" />
    <glyph glyph-name="degree" unicode="&#xb0;" horiz-adv-x="576" 
d="M546 363q0 -42 -4.5 -70.5t-16 -46t-30 -25.5t-45.5 -8q-55 0 -75.5 34t-20.5 116v170q0 82 20.5 116t75.5 34q27 0 45.5 -8t30 -25.5t16 -46t4.5 -70.5v-170v0zM367 84v56h170v-56h-170zM234 0l-123 522l-16 53l7 -55v-520h-62v766h59l129 -546l20 -56l-12 56v546h62
v-766h-64zM486 552q0 42 -7.5 59t-28.5 17t-28.5 -17t-7.5 -59v-208q0 -42 7.5 -59t28.5 -17t28.5 17t7.5 59v208z" />
    <glyph glyph-name="cent" unicode="&#xa2;" horiz-adv-x="247" 
d="M222 248q0 -72 -14.5 -106t-52.5 -42v-100h-60v101q-37 9 -51 43.5t-14 103.5v288q0 69 14 103.5t51 42.5v85h60v-84q38 -8 52.5 -42t14.5 -105v-70h-60v89q0 42 -7.5 59t-28.5 17t-28.5 -17t-7.5 -59v-326q0 -42 7.5 -59t28.5 -17t28.5 17t7.5 59v100h60v-81v0z" />
    <glyph glyph-name="sterling" unicode="&#xa3;" horiz-adv-x="331" 
d="M235 568v78q0 42 -17.5 59t-38.5 17t-38.5 -17t-17.5 -59v-216h165v-56h-165v-64h165v-56h-165v-192h172v-62h-269v62h35v192h-35v56h35v64h-35v56h35v189q0 50 12 81t30 48.5t38.5 24t37.5 6.5t37.5 -6t38.5 -23.5t30 -48.5t12 -82v-51h-62z" />
    <glyph glyph-name="section" unicode="&#xa7;" horiz-adv-x="344" 
d="M339 -3q-10 -2 -19.5 -3.5t-20.5 -1.5q-27 0 -44 8t-26.5 26t-12.5 46.5t-3 69.5v370h-98v-512h-60v512h-55v54h55v56q0 82 23 116t63 34q11 0 20.5 -1.5t19.5 -3.5v-50h-30q-21 0 -28.5 -17t-7.5 -59v-75h98v141h60v-141h65v-54h-65v-389q0 -42 7.5 -59t28.5 -17h30v-50
v0z" />
    <glyph glyph-name="bullet" unicode="&#x2022;" horiz-adv-x="284" 
d="M266 344q0 -29 -10.5 -51.5t-27 -38.5t-38 -24t-43.5 -8q-26 0 -48.5 9t-39.5 25.5t-27 38.5t-10 49q0 25 9.5 47t26 38.5t39 26.5t48.5 10q17 0 37.5 -5.5t39.5 -19.5t31.5 -37.5t12.5 -59.5z" />
    <glyph glyph-name="paragraph" unicode="&#xb6;" horiz-adv-x="390" 
d="M288 -87v794h-49v-795h-62v334h-12q-36 0 -62 6t-42.5 23.5t-24 48.5t-7.5 82v200q0 51 7.5 82t24 48.5t42.5 23.5t62 6h185v-853h-62z" />
    <glyph glyph-name="germandbls" unicode="&#xdf;" horiz-adv-x="315" 
d="M283 137q0 -42 -8.5 -70.5t-24 -46t-36 -25.5t-44.5 -8h-2v52h2q11 0 21 2.5t17.5 9.5t12.5 20t5 34v343q0 17 -6.5 28.5t-16.5 19t-22 12t-23 5.5v50q11 2 23 5.5t22 11t16.5 19.5t6.5 29v34q0 21 -5 34t-12.5 20t-17.5 9.5t-21 2.5q-10 0 -20 -3t-18 -14.5t-12.5 -34
t-4.5 -61.5v-615h-60v511h-55v54h55v65q0 82 31.5 116t83.5 34q48 0 79 -30t31 -104q0 -39 -14 -65.5t-52 -37.5q44 -16 56.5 -51t12.5 -85v-270v0z" />
    <glyph glyph-name="registered" unicode="&#xae;" horiz-adv-x="661" 
d="M631 381q0 -82 -23.5 -154t-64 -126t-95.5 -85t-117 -31t-117 31t-95.5 85t-64 126t-23.5 154t23.5 154.5t64 126.5t95.5 85t117 31t117 -31t95.5 -85t64 -126.5t23.5 -154.5zM400 518q0 42 -13.5 59t-42.5 17h-51v-204h51q29 0 42.5 17t13.5 59v52zM580 382
q0 70 -19 133t-53 110.5t-79.5 75.5t-98.5 28t-98.5 -28t-79.5 -75.5t-53 -110.5t-19 -133t19 -133t53 -110.5t79.5 -75.5t98.5 -28q35 0 67 13t60 36h-60l-67 249h-37v-249h-62v567h107q36 0 60 -6t38.5 -23.5t20 -48.5t5.5 -82q0 -59 -16 -97t-58 -49l70 -260
q56 46 89 124.5t33 172.5z" />
    <glyph glyph-name="copyright" unicode="&#xa9;" horiz-adv-x="661" 
d="M631 381q0 -82 -23.5 -154t-64 -126t-95.5 -85t-117 -31t-117 31t-95.5 85t-64 126t-23.5 154t23.5 154.5t64 126.5t95.5 85t117 31t117 -31t95.5 -85t64 -126.5t23.5 -154.5zM580 382q0 70 -19 133t-53 110.5t-79.5 75.5t-98.5 28t-98.5 -28t-79.5 -75.5t-53 -110.5
t-19 -133t19 -133t53 -110.5t79.5 -75.5t98.5 -28t98.5 28t79.5 75.5t53 110.5t19 133zM425 254q0 -42 -4.5 -70.5t-16 -46t-30 -25.5t-45.5 -8q-55 0 -75.5 34t-20.5 116v248q0 82 20.5 116t75.5 34q27 0 45.5 -8t30 -25.5t16 -46t4.5 -70.5v-70h-60v89q0 42 -7.5 59
t-28.5 17t-28.5 -17t-7.5 -59v-286q0 -42 7.5 -59t28.5 -17t28.5 17t7.5 59v100h60v-81v0z" />
    <glyph glyph-name="trademark" unicode="&#x2122;" horiz-adv-x="576" 
d="M494 414v251l6 47l-14 -45l-80 -253h-30l-74 253l-14 45l6 -47v-251h-52v352h80l68 -245l4 -59l4 59l68 245h81v-352h-53zM138 714v-300h-53v300h-80v52h213v-52h-80z" />
    <glyph glyph-name="acute" unicode="&#xb4;" horiz-adv-x="98" 
d="M53 642h-53l44 101h71z" />
    <glyph glyph-name="dieresis" unicode="&#xa8;" horiz-adv-x="255" 
d="M236 671q0 -19 -14.5 -29t-31.5 -10t-30 13.5t-13 28.5q0 21 14 32t33 11q21 0 31.5 -13t10.5 -33zM106 671q0 -19 -14.5 -29t-31.5 -10t-30 13.5t-13 28.5q0 21 14 32t33 11q21 0 31.5 -13t10.5 -33z" />
    <glyph glyph-name="AE" unicode="&#xc6;" horiz-adv-x="436" 
d="M214 0l3 190h-109l-47 -190h-61l205 766h216v-62h-142v-287h135v-62h-135v-293h142v-62h-207zM217 662l-92 -410h92v410z" />
    <glyph glyph-name="Oslash" unicode="&#xd8;" horiz-adv-x="306" 
d="M271 147q0 -51 -12 -82t-30 -48.5t-38.5 -23.5t-37.5 -6q-14 0 -31.5 4.5t-33.5 15.5l-13 -60h-37l20 95q-11 18 -17 44t-6 61v472q0 50 12 81t30 48.5t38.5 24t37.5 6.5q12 0 27.5 -3.5t31.5 -14.5l12 57h37l-19 -86q13 -18 21 -45.5t8 -67.5v-472v0zM198 696
q-8 14 -20 20t-25 6q-21 0 -38.5 -17t-17.5 -59v-422l101 472v0zM209 574l-106 -494q8 -20 21.5 -28t28.5 -8q21 0 38.5 17t17.5 59v454z" />
    <glyph glyph-name="plusminus" unicode="&#xb1;" horiz-adv-x="312" 
d="M185 404v-103h-56v103h-103v56h103v103h56v-103h103v-56h-103zM24 187v56h262v-56h-262z" />
    <glyph glyph-name="yen" unicode="&#xa5;" horiz-adv-x="278" 
d="M169 320h99v-56h-107v-64h107v-56h-107v-144h-60v144h-95v56h95v64h-95v56h88l-94 447h63l71 -343l81 344h63z" />
    <glyph glyph-name="mu" unicode="&#xb5;" horiz-adv-x="686" 
d="M586 606v88h39v-18h-16v-16h15v-17h-15v-20h17v-17h-40zM580 662q0 -12 -4.5 -16t-16.5 -4h-6v-36h-23v88h23q19 0 23 -5t4 -20v-7v0zM510 637v-31h-21v31l-16 57h20q5 -24 6 -33q1 7 2.5 15l3.5 18h21zM459 676v-70h-23v70h-14v18h50v-18h-13zM379 606l-1 16h-8l-2 -16
h-23l11 88h33l14 -88h-24zM341 632q0 -20 -5 -23t-19 -3h-29v88h17q13 0 20 -1t10.5 -4t4.5 -9t1 -17v-31v0zM261 606l-1 16h-9l-1 -16h-23l11 88h33l14 -88h-24zM203 606l-12 40v-40h-19v88h18l13 -40v40h20v-88h-20zM144 606l-1 16h-8l-2 -16h-23l11 88h33l14 -88h-24z
M107 638q0 -17 -5.5 -25.5t-21.5 -8.5t-21.5 7.5t-5.5 25.5v26q0 19 6.5 26t19.5 7q17 0 22.5 -8t5.5 -24v-8h-23v15q0 7 -1 8.5t-3 1.5q-4 0 -4 -11v-41q0 -7 0.5 -8.5t3.5 -1.5q2 0 3 1.5t1 9.5v12h23v-4v0zM51 0v578h578v-578h-578zM561 672q0 7 -8 7v-23h2q6 0 6 8v8z
M377 637q-1 14 -3 38q-2 -13 -3 -22.5t-1 -15.5h7v0zM318 668q0 8 -1 9.5t-6 1.5v-58q5 0 6 1.5t1 10.5v35zM259 637q-1 14 -3 38q-2 -13 -3 -22.5t-2 -15.5h8v0zM142 637q-1 7 -1.5 16t-1.5 20q-2 -12 -3 -21t-1 -15h7v0zM533 285q-3 3 -5.5 6t-6.5 5l23 68l-56 -12
q-4 2 -6.5 5.5l-4.5 6.5l-11 22l-45 -45q-4 -5 -6.5 -7t-4.5 -4q-9 4 -11 11l33 112l-33 -11q-2 -1 -7 -4t-5 -6v-1q-5 3 -6.5 4.5t-4.5 6.5l-33 67l-34 -67q-2 -5 -4.5 -6.5t-6.5 -4.5q0 3 -4.5 6.5t-6.5 4.5l-23 11l23 -112l-12 -11q-3 3 -5.5 4.5t-5.5 6.5l-45 45
l-11 -22l-6 -7.5t-5 -4.5l-56 12l22 -68q-5 -4 -11 -11h-22l101 -78q2 -2 5.5 -8.5t5.5 -14.5q-2 -5 -5.5 -12t-17.5 -21l101 22q5 -2 9 -4.5t4 -4.5q0 -1 -1 -2v-101h22v101q-1 1 -1 3q0 4 12 8l101 -22q-12 14 -16.5 22t-6.5 11q2 8 5.5 14.5t5.5 8.5l90 78h-11z" />
    <glyph glyph-name="ordfeminine" unicode="&#xaa;" horiz-adv-x="257" 
d="M175 0l-13 46q-3 -7 -8.5 -16.5t-13.5 -17.5t-18 -13.5t-23 -5.5q-40 0 -54.5 33.5t-14.5 116.5v280q0 42 2 71t8 47t17.5 26.5t31.5 8.5q26 0 42.5 -15t30.5 -34v40h60v-567h-47zM162 454q0 34 -8 49t-28 15q-21 0 -28.5 -17t-7.5 -59v-318q0 -42 7.5 -59t28.5 -17
q14 0 25 17t11 59v330z" />
    <glyph glyph-name="ordmasculine" unicode="&#xba;" horiz-adv-x="252" 
d="M222 401q0 -42 -4.5 -70.5t-16 -46t-30 -25.5t-45.5 -8q-55 0 -75.5 34t-20.5 116v170q0 82 20.5 116t75.5 34q27 0 45.5 -8t30 -25.5t16 -46t4.5 -70.5v-170v0zM43 122v56h170v-56h-170zM162 590q0 42 -7.5 59t-28.5 17t-28.5 -17t-7.5 -59v-208q0 -42 7.5 -59t28.5 -17
t28.5 17t7.5 59v208z" />
    <glyph glyph-name="ae" unicode="&#xe6;" horiz-adv-x="379" 
d="M354 141q0 -42 -4.5 -70.5t-16 -46t-30 -25.5t-45.5 -8q-40 0 -61 17t-29 56q-11 -29 -27 -50t-42 -21q-40 0 -54.5 33.5t-14.5 116.5v10q0 42 2 71t8 47t17.5 26.5t31.5 8.5q26 0 42.5 -15t30.5 -34v183q0 42 -7.5 59t-28.5 17t-28.5 -17t-7.5 -59v-54h-60v35
q0 42 4.5 70.5t16 46t30 25.5t45.5 8q44 0 66 -22q22 22 66 22q27 0 45.5 -8t30 -25.5t16 -46t4.5 -70.5v-160h-132v-151q0 -35 8 -49.5t28 -14.5q21 0 28.5 17t7.5 59v65h60v-46v0zM294 440q0 42 -7.5 59t-28.5 17t-28.5 -17t-7.5 -59v-125h72v125zM162 193q0 55 -36 55
q-21 0 -28.5 -17t-7.5 -59v-48q0 -42 7.5 -59t28.5 -17q14 0 25 17t11 59v69z" />
    <glyph glyph-name="oslash" unicode="&#xf8;" horiz-adv-x="252" 
d="M222 141q0 -42 -4.5 -70.5t-16 -46t-30 -25.5t-45.5 -8t-42 7l-11 -48h-37l16 72q-12 18 -17 47t-5 72v280q0 82 20.5 116t75.5 34q13 0 23.5 -2t19.5 -5l11 49h37l-16 -75q11 -17 16 -46t5 -71v-280v0zM155 497q-9 19 -29 19q-21 0 -28.5 -17t-7.5 -59v-244l65 301v0z
M162 358l-64 -296q7 -16 28 -16t28.5 17t7.5 59v236z" />
    <glyph glyph-name="questiondown" unicode="&#xbf;" horiz-adv-x="280" 
d="M205 538q0 -21 -14 -32t-33 -11q-21 0 -31.5 13t-10.5 33q0 19 14.5 29t31.5 10t30 -13.5t13 -28.5zM263 -60q0 -41 -8.5 -69.5t-24.5 -46.5t-37.5 -26t-47.5 -8q-52 0 -85 33.5t-33 116.5v103q0 63 22 102.5t83 52.5v222h62v-275q-5 2 -9.5 2h-9.5q-10 0 -25 -2.5
t-28.5 -9.5t-23 -20t-9.5 -34v-168q0 -21 5 -34t12.5 -20t18 -9.5t20.5 -2.5q11 0 21 2.5t17.5 9.5t12.5 20t5 34v139h62v-112v0z" />
    <glyph glyph-name="exclamdown" unicode="&#xa1;" horiz-adv-x="127" 
d="M109 536q0 -21 -14 -32t-33 -11q-21 0 -31.5 13t-10.5 33q0 19 14.5 29t31.5 10t30 -13.5t13 -28.5zM27 -199l15 616h40l14 -616h-69z" />
    <glyph glyph-name="logicalnot" unicode="&#xac;" horiz-adv-x="313" 
d="M281 147q0 -51 -9.5 -82t-25.5 -48.5t-37.5 -23.5t-45.5 -6t-47 6.5t-41 24t-29 48.5t-11 81v472q0 50 11 81t29 48.5t41 24t47 6.5t45.5 -6t37.5 -23.5t25.5 -48.5t9.5 -82v-120h-62v147q0 42 -17.5 59t-38.5 17q-10 0 -22 -4t-21.5 -13t-16 -23.5t-6.5 -35.5v-526
q0 -21 6.5 -35.5t16 -23.5t21.5 -13t22 -4q21 0 38.5 17t17.5 59v237h-67v60h129v-270v0z" />
    <glyph glyph-name="florin" unicode="&#x192;" horiz-adv-x="171" 
d="M153 719q-21 0 -28.5 -17t-7.5 -59v-266h65v-54h-65v-379q0 -82 -23 -116t-63 -34q-11 0 -20.5 1.5t-19.5 3.5v50h30q21 0 28.5 17t7.5 59v398h-68v54h68v247q0 82 23 116t63 34q11 0 20.5 -1.5t19.5 -3.5v-50h-30z" />
    <glyph glyph-name="guillemotleft" unicode="&#xab;" horiz-adv-x="280" 
d="M185 288l73 -167h-59l-75 167l74 169h61zM87 121l-73 167l73 169h62l-74 -169l74 -167h-62z" />
    <glyph glyph-name="guillemotright" unicode="&#xbb;" horiz-adv-x="281" 
d="M192 121h-62l74 167l-74 169h62l73 -169zM80 121h-59l73 167l-74 169h61l74 -169z" />
    <glyph glyph-name="ellipsis" unicode="&#x2026;" horiz-adv-x="397" 
d="M372 29q0 -19 -14.5 -29t-31.5 -10t-30 13.5t-13 28.5q0 21 14 32t33 11q21 0 31.5 -13t10.5 -33zM242 29q0 -19 -14.5 -29t-31.5 -10t-30 13.5t-13 28.5q0 21 14 32t33 11q21 0 31.5 -13t10.5 -33zM112 29q0 -19 -14.5 -29t-31.5 -10t-30 13.5t-13 28.5q0 21 14 32
t33 11q21 0 31.5 -13t10.5 -33z" />
    <glyph glyph-name="Agrave" unicode="&#xc0;" horiz-adv-x="277" 
d="M120 841l-63 101h71l46 -101h-54zM215 0l-22 190h-109l-22 -190h-62l103 766h70l104 -766h-62zM142 649q0 14 -1 27.5t-3 27.5q-3 -27 -3 -55l-42 -397h91z" />
    <glyph glyph-name="Atilde" unicode="&#xc3;" horiz-adv-x="277" 
d="M236 903q-5 -29 -22 -46t-43 -17q-17 0 -30.5 8.5t-28.5 8.5q-8 0 -11 -4.5t-5 -11.5h-56q1 5 3.5 15.5t9 21t18.5 18.5t31 8q17 0 33 -7.5t30 -7.5q8 0 10.5 7t2.5 8l58 -1v0zM215 0l-22 190h-109l-22 -190h-62l103 766h70l104 -766h-62zM142 649q0 14 -1 27.5t-3 27.5
q-3 -27 -3 -55l-42 -397h91z" />
    <glyph glyph-name="Otilde" unicode="&#xd5;" horiz-adv-x="306" 
d="M251 903q-5 -29 -22 -46t-43 -17q-17 0 -30.5 8.5t-28.5 8.5q-8 0 -11 -4.5t-5 -11.5h-56q1 5 3.5 15.5t9 21t18.5 18.5t31 8q17 0 33 -7.5t30 -7.5q8 0 10.5 7t2.5 8l58 -1v0zM271 147q0 -51 -12 -82t-30 -48.5t-38.5 -23.5t-37.5 -6t-37.5 6.5t-38.5 24t-30 48.5
t-12 81v472q0 50 12 81t30 48.5t38.5 24t37.5 6.5q15 0 35.5 -6t39 -23.5t31 -48.5t12.5 -82v-472v0zM209 646q0 42 -17.5 59t-38.5 17t-38.5 -17t-17.5 -59v-526q0 -42 17.5 -59t38.5 -17t38.5 17t17.5 59v526z" />
    <glyph glyph-name="OE" unicode="&#x152;" horiz-adv-x="428" 
d="M209 0q-14 -8 -29 -10.5t-27 -2.5q-17 0 -37.5 6.5t-38.5 24t-30 48.5t-12 81v472q0 50 12 81t30 48.5t38.5 24t37.5 6.5q11 0 26.5 -3t30.5 -10h203v-62h-142v-287h135v-62h-135v-293h142v-62h-204zM209 654q0 19 -5 32t-13 21t-18 11.5t-20 3.5q-21 0 -38.5 -17
t-17.5 -59v-526q0 -42 17.5 -59t38.5 -17t38.5 17t17.5 59v534z" />
    <glyph glyph-name="oe" unicode="&#x153;" horiz-adv-x="379" 
d="M354 141q0 -42 -4.5 -70.5t-16 -46t-30 -25.5t-45.5 -8q-44 0 -66 22q-22 -22 -66 -22q-55 0 -75.5 34t-20.5 116v280q0 82 20.5 116t75.5 34q44 0 66 -22q22 22 66 22q27 0 45.5 -8t30 -25.5t16 -46t4.5 -70.5v-160h-132v-139q0 -42 7.5 -59t28.5 -17t28.5 17t7.5 59v65
h60v-46v0zM294 440q0 42 -7.5 59t-28.5 17t-28.5 -17t-7.5 -59v-125h72v125zM162 440q0 42 -7.5 59t-28.5 17t-28.5 -17t-7.5 -59v-318q0 -42 7.5 -59t28.5 -17t28.5 17t7.5 59v318z" />
    <glyph glyph-name="endash" unicode="&#x2013;" horiz-adv-x="242" 
d="M24 264v56h192v-56h-192z" />
    <glyph glyph-name="emdash" unicode="&#x2014;" horiz-adv-x="377" 
d="M24 264v56h327v-56h-327z" />
    <glyph glyph-name="quotedblleft" unicode="&#x201c;" horiz-adv-x="252" 
d="M177 560h-72l129 207h34zM53 560h-71l129 207h35z" />
    <glyph glyph-name="quotedblright" unicode="&#x201d;" horiz-adv-x="253" 
d="M140 559h-35l93 207h71zM17 559h-34l91 207h72z" />
    <glyph glyph-name="quoteleft" unicode="&#x2018;" horiz-adv-x="129" 
d="M54 560h-72l129 207h34z" />
    <glyph glyph-name="quoteright" unicode="&#x2019;" horiz-adv-x="130" 
d="M17 559h-34l91 207h72z" />
    <glyph glyph-name="divide" unicode="&#xf7;" horiz-adv-x="312" 
d="M203 513q0 -19 -14.5 -29t-31.5 -10t-30 13.5t-13 28.5q0 21 14 32t33 11q21 0 31.5 -13t10.5 -33zM26 344v56h262v-56h-262zM203 220q0 -19 -14.5 -29t-31.5 -10t-30 13.5t-13 28.5q0 21 14 32t33 11q21 0 31.5 -13t10.5 -33z" />
    <glyph glyph-name="ydieresis" unicode="&#xff;" horiz-adv-x="229" 
d="M224 671q0 -19 -14.5 -29t-31.5 -10t-30 13.5t-13 28.5q0 21 14 32t33 11q21 0 31.5 -13t10.5 -33zM94 671q0 -19 -14.5 -29t-31.5 -10t-30 13.5t-13 28.5q0 21 14 32t33 11q21 0 31.5 -13t10.5 -33zM113 -200h-64l28 176l-77 591h64l48 -432q0 -13 0.5 -26t1.5 -25l2 6
q1 11 1.5 22.5t0.5 22.5l47 432h64z" />
    <glyph glyph-name="Ydieresis" unicode="&#x178;" horiz-adv-x="278" 
d="M244 870q0 -19 -14.5 -29t-31.5 -10t-30 13.5t-13 28.5q0 21 14 32t33 11q21 0 31.5 -13t10.5 -33zM114 870q0 -19 -14.5 -29t-31.5 -10t-30 13.5t-13 28.5q0 21 14 32t33 11q21 0 31.5 -13t10.5 -33zM161 287v-287h-60v286l-101 481h63l71 -343l81 344h63z" />
    <glyph glyph-name="currency" unicode="&#xa4;" horiz-adv-x="318" 
d="M288 147q0 -51 -12 -82t-30 -48.5t-38.5 -23.5t-37.5 -6t-37.5 6.5t-38.5 24t-30 48.5t-12 81v147h-38v56h38v64h-39v56h39v149q0 50 12 81t30 48.5t38.5 24t37.5 6.5t37.5 -6t38.5 -23.5t30 -48.5t12 -82v-50h-62v77q0 42 -17.5 59t-38.5 17t-38.5 -17t-17.5 -59v-176
h161v-56h-161v-64h162v-56h-162v-174q0 -42 17.5 -59t38.5 -17t38.5 17t17.5 59v66h62v-39v0z" />
    <glyph glyph-name="guilsinglleft" unicode="&#x2039;" horiz-adv-x="170" 
d="M87 121l-73 167l73 169h62l-74 -169l74 -167h-62z" />
    <glyph glyph-name="guilsinglright" unicode="&#x203a;" horiz-adv-x="171" 
d="M82 121h-62l74 167l-74 169h62l73 -169z" />
    <glyph glyph-name="fi" unicode="&#xfb01;" horiz-adv-x="308" 
d="M291 686q0 -21 -14 -32t-33 -11q-21 0 -31.5 13t-10.5 33q0 19 14.5 29t31.5 10t30 -13.5t13 -28.5zM213 0v567h60v-567h-60zM151 717q-21 0 -28.5 -17t-7.5 -59v-75h65v-54h-65v-512h-60v512h-55v54h55v56q0 82 23 116t63 34q11 0 20.5 -1.5t19.5 -3.5v-50h-30z" />
    <glyph glyph-name="fl" unicode="&#xfb02;" horiz-adv-x="314" 
d="M214 0v767h60v-767h-60zM151 717q-21 0 -28.5 -17t-7.5 -59v-75h65v-54h-65v-512h-60v512h-55v54h55v56q0 82 23 116t63 34q11 0 20.5 -1.5t19.5 -3.5v-50h-30z" />
    <glyph glyph-name="daggerdbl" unicode="&#x2021;" horiz-adv-x="209" 
d="M134 367v-367h-62v367h-67v56h67v117h-67v56h67v170h62v-170h70v-56h-70v-117h70v-56h-70z" />
    <glyph glyph-name="periodcentered" unicode="&#xb7;" horiz-adv-x="345" 
d="M340 -3q-10 -2 -19.5 -3.5t-20.5 -1.5q-27 0 -44 8t-26.5 26t-12.5 46.5t-3 69.5v372h-109v-391q0 -42 7.5 -59t28.5 -17h30v-50q-10 -2 -19.5 -3.5t-20.5 -1.5q-27 0 -44 8t-26.5 26t-12.5 46.5t-3 69.5v372h-45v54h45v139h60v-139h109v139h60v-139h65v-54h-65v-391
q0 -42 7.5 -59t28.5 -17h30v-50v0z" />
    <glyph glyph-name="quotesinglbase" unicode="&#x201a;" horiz-adv-x="126" 
d="M-10 -135h-36l88 218h75z" />
    <glyph glyph-name="quotedblbase" unicode="&#x201e;" horiz-adv-x="249" 
d="M111 -124h-35l93 207h71zM-12 -124h-34l91 207h72z" />
    <glyph glyph-name="perthousand" unicode="&#x2030;" horiz-adv-x="833" 
d="M803 139q0 -42 -4 -70.5t-14 -46t-28 -25.5t-45 -8t-45 8t-28 26t-14 46.5t-4 69.5v199q0 41 4 69.5t14 46.5t28 26t45 8t45 -8t28 -25.5t14 -46t4 -70.5v-199v0zM576 139q0 -42 -4 -70.5t-14 -46t-28 -25.5t-45 -8t-45 8t-28 26t-14 46.5t-4 69.5v199q0 41 4 69.5
t14 46.5t28 26t45 8t45 -8t28 -25.5t14 -46t4 -70.5v-199v0zM250 0h-57l166 768h57zM212 431q0 -42 -4 -70.5t-14 -46t-28 -25.5t-45 -8t-45 8t-28 26t-14 46.5t-4 69.5v199q0 41 4 69.5t14 46.5t28 26t45 8t45 -8t28 -25.5t14 -46t4 -70.5v-199v0zM748 362q0 42 -7.5 59
t-28.5 17t-28.5 -17t-7.5 -59v-247q0 -42 7.5 -59t28.5 -17t28.5 17t7.5 59v247zM521 362q0 42 -7.5 59t-28.5 17t-28.5 -17t-7.5 -59v-247q0 -42 7.5 -59t28.5 -17t28.5 17t7.5 59v247zM157 654q0 42 -7.5 59t-28.5 17t-28.5 -17t-7.5 -59v-247q0 -42 7.5 -59t28.5 -17
t28.5 17t7.5 59v247z" />
    <glyph glyph-name="Acircumflex" unicode="&#xc2;" horiz-adv-x="277" 
d="M177 841l-39 62l-36 -62h-56l55 101h70l59 -101h-53zM215 0l-22 190h-109l-22 -190h-62l103 766h70l104 -766h-62zM142 649q0 14 -1 27.5t-3 27.5q-3 -27 -3 -55l-42 -397h91z" />
    <glyph glyph-name="Ecircumflex" unicode="&#xca;" 
d="M184 841l-39 62l-36 -62h-56l55 101h70l59 -101h-53zM40 0v766h204v-62h-142v-287h135v-62h-135v-293h142v-62h-204z" />
    <glyph glyph-name="Aacute" unicode="&#xc1;" horiz-adv-x="277" 
d="M168 841h-53l44 101h71zM215 0l-22 190h-109l-22 -190h-62l103 766h70l104 -766h-62zM142 649q0 14 -1 27.5t-3 27.5q-3 -27 -3 -55l-42 -397h91z" />
    <glyph glyph-name="Edieresis" unicode="&#xcb;" 
d="M261 870q0 -19 -14.5 -29t-31.5 -10t-30 13.5t-13 28.5q0 21 14 32t33 11q21 0 31.5 -13t10.5 -33zM131 870q0 -19 -14.5 -29t-31.5 -10t-30 13.5t-13 28.5q0 21 14 32t33 11q21 0 31.5 -13t10.5 -33zM40 0v766h204v-62h-142v-287h135v-62h-135v-293h142v-62h-204z" />
    <glyph glyph-name="Egrave" unicode="&#xc8;" 
d="M134 841l-63 101h71l46 -101h-54zM40 0v766h204v-62h-142v-287h135v-62h-135v-293h142v-62h-204z" />
    <glyph glyph-name="Iacute" unicode="&#xcd;" horiz-adv-x="142" 
d="M96 841h-53l44 101h71zM40 0v766h62v-766h-62z" />
    <glyph glyph-name="Icircumflex" unicode="&#xce;" horiz-adv-x="142" 
d="M110 841l-39 62l-36 -62h-56l55 101h70l59 -101h-53zM40 0v766h62v-766h-62z" />
    <glyph glyph-name="Idieresis" unicode="&#xcf;" horiz-adv-x="142" 
d="M181 870q0 -19 -14.5 -29t-31.5 -10t-30 13.5t-13 28.5q0 21 14 32t33 11q21 0 31.5 -13t10.5 -33zM51 870q0 -19 -14.5 -29t-31.5 -10t-30 13.5t-13 28.5q0 21 14 32t33 11q21 0 31.5 -13t10.5 -33zM40 0v766h62v-766h-62z" />
    <glyph glyph-name="Igrave" unicode="&#xcc;" horiz-adv-x="142" 
d="M46 841l-63 101h71l46 -101h-54zM40 0v766h62v-766h-62z" />
    <glyph glyph-name="Oacute" unicode="&#xd3;" horiz-adv-x="306" 
d="M177 841h-53l44 101h71zM271 147q0 -51 -12 -82t-30 -48.5t-38.5 -23.5t-37.5 -6t-37.5 6.5t-38.5 24t-30 48.5t-12 81v472q0 50 12 81t30 48.5t38.5 24t37.5 6.5q15 0 35.5 -6t39 -23.5t31 -48.5t12.5 -82v-472v0zM209 646q0 42 -17.5 59t-38.5 17t-38.5 -17t-17.5 -59
v-526q0 -42 17.5 -59t38.5 -17t38.5 17t17.5 59v526z" />
    <glyph glyph-name="Ocircumflex" unicode="&#xd4;" horiz-adv-x="306" 
d="M192 841l-39 62l-36 -62h-56l55 101h70l59 -101h-53zM271 147q0 -51 -12 -82t-30 -48.5t-38.5 -23.5t-37.5 -6t-37.5 6.5t-38.5 24t-30 48.5t-12 81v472q0 50 12 81t30 48.5t38.5 24t37.5 6.5q15 0 35.5 -6t39 -23.5t31 -48.5t12.5 -82v-472v0zM209 646q0 42 -17.5 59
t-38.5 17t-38.5 -17t-17.5 -59v-526q0 -42 17.5 -59t38.5 -17t38.5 17t17.5 59v526z" />
    <glyph glyph-name="apple" unicode="&#xf8ff;" horiz-adv-x="686" 
d="M586 606v88h39v-18h-16v-16h15v-17h-15v-20h17v-17h-40zM580 662q0 -12 -4.5 -16t-16.5 -4h-6v-36h-23v88h23q19 0 23 -5t4 -20v-7v0zM510 637v-31h-21v31l-16 57h20q5 -24 6 -33q1 7 2.5 15l3.5 18h21zM459 676v-70h-23v70h-14v18h50v-18h-13zM379 606l-1 16h-8l-2 -16
h-23l11 88h33l14 -88h-24zM341 632q0 -20 -5 -23t-19 -3h-29v88h17q13 0 20 -1t10.5 -4t4.5 -9t1 -17v-31v0zM261 606l-1 16h-9l-1 -16h-23l11 88h33l14 -88h-24zM203 606l-12 40v-40h-19v88h18l13 -40v40h20v-88h-20zM144 606l-1 16h-8l-2 -16h-23l11 88h33l14 -88h-24z
M107 638q0 -17 -5.5 -25.5t-21.5 -8.5t-21.5 7.5t-5.5 25.5v26q0 19 6.5 26t19.5 7q17 0 22.5 -8t5.5 -24v-8h-23v15q0 7 -1 8.5t-3 1.5q-4 0 -4 -11v-41q0 -7 0.5 -8.5t3.5 -1.5q2 0 3 1.5t1 9.5v12h23v-4v0zM51 0v578h578v-578h-578zM561 672q0 7 -8 7v-23h2q6 0 6 8v8z
M377 637q-1 14 -3 38q-2 -13 -3 -22.5t-1 -15.5h7v0zM318 668q0 8 -1 9.5t-6 1.5v-58q5 0 6 1.5t1 10.5v35zM259 637q-1 14 -3 38q-2 -13 -3 -22.5t-2 -15.5h8v0zM142 637q-1 7 -1.5 16t-1.5 20q-2 -12 -3 -21t-1 -15h7v0zM533 285q-3 3 -5.5 6t-6.5 5l23 68l-56 -12
q-4 2 -6.5 5.5l-4.5 6.5l-11 22l-45 -45q-4 -5 -6.5 -7t-4.5 -4q-9 4 -11 11l33 112l-33 -11q-2 -1 -7 -4t-5 -6v-1q-5 3 -6.5 4.5t-4.5 6.5l-33 67l-34 -67q-2 -5 -4.5 -6.5t-6.5 -4.5q0 3 -4.5 6.5t-6.5 4.5l-23 11l23 -112l-12 -11q-3 3 -5.5 4.5t-5.5 6.5l-45 45
l-11 -22l-6 -7.5t-5 -4.5l-56 12l22 -68q-5 -4 -11 -11h-22l101 -78q2 -2 5.5 -8.5t5.5 -14.5q-2 -5 -5.5 -12t-17.5 -21l101 22q5 -2 9 -4.5t4 -4.5q0 -1 -1 -2v-101h22v101q-1 1 -1 3q0 4 12 8l101 -22q-12 14 -16.5 22t-6.5 11q2 8 5.5 14.5t5.5 8.5l90 78h-11z" />
    <glyph glyph-name="Ograve" unicode="&#xd2;" horiz-adv-x="306" 
d="M132 841l-63 101h71l46 -101h-54zM271 147q0 -51 -12 -82t-30 -48.5t-38.5 -23.5t-37.5 -6t-37.5 6.5t-38.5 24t-30 48.5t-12 81v472q0 50 12 81t30 48.5t38.5 24t37.5 6.5q15 0 35.5 -6t39 -23.5t31 -48.5t12.5 -82v-472v0zM209 646q0 42 -17.5 59t-38.5 17t-38.5 -17
t-17.5 -59v-526q0 -42 17.5 -59t38.5 -17t38.5 17t17.5 59v526z" />
    <glyph glyph-name="Uacute" unicode="&#xda;" horiz-adv-x="310" 
d="M186 841h-53l44 101h71zM273 147q0 -51 -12 -82t-30 -48.5t-38.5 -23.5t-37.5 -6t-37.5 6.5t-38.5 24t-30 48.5t-12 81v619h62v-642q0 -42 17.5 -59t38.5 -17t38.5 17t17.5 59v642h62v-619v0z" />
    <glyph glyph-name="Ucircumflex" unicode="&#xdb;" horiz-adv-x="310" 
d="M193 841l-39 62l-36 -62h-56l55 101h70l59 -101h-53zM273 147q0 -51 -12 -82t-30 -48.5t-38.5 -23.5t-37.5 -6t-37.5 6.5t-38.5 24t-30 48.5t-12 81v619h62v-642q0 -42 17.5 -59t38.5 -17t38.5 17t17.5 59v642h62v-619v0z" />
    <glyph glyph-name="Ugrave" unicode="&#xd9;" horiz-adv-x="310" 
d="M136 841l-63 101h71l46 -101h-54zM273 147q0 -51 -12 -82t-30 -48.5t-38.5 -23.5t-37.5 -6t-37.5 6.5t-38.5 24t-30 48.5t-12 81v619h62v-642q0 -42 17.5 -59t38.5 -17t38.5 17t17.5 59v642h62v-619v0z" />
    <glyph glyph-name="dotlessi" unicode="&#x131;" horiz-adv-x="130" 
d="M35 0v567h60v-567h-60z" />
    <glyph glyph-name="circumflex" unicode="&#x2c6;" horiz-adv-x="203" 
d="M139 642l-39 62l-36 -62h-56l55 101h70l59 -101h-53z" />
    <glyph glyph-name="tilde" unicode="&#x2dc;" horiz-adv-x="203" 
d="M199 704q-5 -29 -22 -46t-43 -17q-17 0 -30.5 8.5t-28.5 8.5q-8 0 -11 -4.5t-5 -11.5h-56q1 5 3.5 15.5t9 21t18.5 18.5t31 8q17 0 33 -7.5t30 -7.5q8 0 10.5 7t2.5 8l58 -1v0z" />
    <glyph glyph-name="macron" unicode="&#xaf;" horiz-adv-x="466" 
d="M371 0v767h60v-767h-60zM309 717q-21 0 -28.5 -17t-7.5 -59v-75h65v-54h-65v-512h-60v512h-98v-512h-60v512h-55v54h55v56q0 82 23 116t63 34q11 0 20.5 -1.5t19.5 -3.5v-50h-30q-21 0 -28.5 -17t-7.5 -59v-75h98v56q0 82 23 116t63 34q11 0 20.5 -1.5t19.5 -3.5v-50h-30
z" />
    <glyph glyph-name="ring" unicode="&#x2da;" horiz-adv-x="166" 
d="M148 682q0 -27 -19.5 -46t-45.5 -19q-11 0 -22.5 4t-20.5 12t-15 20.5t-6 29.5q0 27 19.5 45.5t46.5 18.5q26 0 44.5 -19.5t18.5 -45.5zM120 683q0 14 -11 25t-26 11q-15 -1 -25 -12t-10 -25q0 -18 11.5 -27t25.5 -9t25 11t10 26z" />
    <glyph glyph-name="cedilla" unicode="&#xb8;" horiz-adv-x="163" 
d="M63 -83h-27l42 105h46z" />
    <glyph glyph-name="caron" unicode="&#x2c7;" horiz-adv-x="203" 
d="M137 643h-70l-59 101h53l39 -62l36 62h56z" />
    <glyph glyph-name="Eth" unicode="&#xd0;" horiz-adv-x="307" 
d="M272 160q0 -51 -7.5 -82t-24 -48.5t-42.5 -23.5t-62 -6h-95v382h-34v56h34v328h95q36 0 62 -6t42.5 -23.5t24 -48.5t7.5 -82v-446v0zM210 633q0 42 -13.5 59t-42.5 17h-51v-271h59v-56h-59v-325h51q29 0 42.5 17t13.5 59v500z" />
    <glyph glyph-name="Euro" unicode="&#x20ac;" horiz-adv-x="318" 
d="M288 147q0 -51 -12 -82t-30 -48.5t-38.5 -23.5t-37.5 -6t-37.5 6.5t-38.5 24t-30 48.5t-12 81v147h-38v56h38v64h-39v56h39v149q0 50 12 81t30 48.5t38.5 24t37.5 6.5t37.5 -6t38.5 -23.5t30 -48.5t12 -82v-50h-62v77q0 42 -17.5 59t-38.5 17t-38.5 -17t-17.5 -59v-176
h161v-56h-161v-64h162v-56h-162v-174q0 -42 17.5 -59t38.5 -17t38.5 17t17.5 59v66h62v-39v0z" />
    <glyph glyph-name="uni00A0" unicode="&#xa0;" horiz-adv-x="200" 
 />
    </font>
</defs>
</svg>
